<svg width="1920" height="1075" viewBox="0 0 1920 1075" fill="none" xmlns="http://www.w3.org/2000/svg">
<g clip-path="url(#clip0_310_10)">
<rect width="1920" height="1075" fill="#0A0A0A"/>
<path d="M-135.524 125V31.9091H-104.115C-98.0541 31.9091 -93.0087 32.9697 -88.9784 35.0909C-84.9178 37.2121 -81.8723 40.1061 -79.842 43.7727C-77.8117 47.4394 -76.7965 51.6061 -76.7965 56.2727C-76.7965 60.1515 -77.4481 63.4697 -78.7511 66.2273C-80.0541 68.9848 -81.8268 71.2121 -84.0693 72.9091C-86.3117 74.6061 -88.8117 75.8333 -91.5693 76.5909V77.3182C-88.5693 77.5303 -85.6602 78.5909 -82.842 80.5C-80.0238 82.3788 -77.7056 85.0151 -75.8875 88.4091C-74.0693 91.803 -73.1602 95.8636 -73.1602 100.591C-73.1602 105.288 -74.2056 109.485 -76.2965 113.182C-78.3875 116.848 -81.5996 119.742 -85.9329 121.864C-90.2359 123.955 -95.7208 125 -102.387 125H-135.524ZM-127.024 117.364H-102.387C-95.2056 117.364 -89.9026 115.773 -86.4784 112.591C-83.0238 109.409 -81.2965 105.409 -81.2965 100.591C-81.2965 97.0455 -82.1602 93.8333 -83.8875 90.9545C-85.5844 88.0455 -87.9935 85.7424 -91.1147 84.0455C-94.2056 82.3485 -97.842 81.5 -102.024 81.5H-127.024V117.364ZM-127.024 73.9545H-103.342C-99.6753 73.9545 -96.4632 73.197 -93.7056 71.6818C-90.9481 70.1667 -88.7965 68.0758 -87.2511 65.4091C-85.7056 62.7424 -84.9329 59.697 -84.9329 56.2727C-84.9329 51.3333 -86.539 47.3182 -89.7511 44.2273C-92.9632 41.1061 -97.7511 39.5454 -104.115 39.5454H-127.024V73.9545ZM-51.3688 125V31.9091H2.63119V39.5454H-42.8688V74.5909H-0.232452V82.2273H-42.8688V117.364H3.54028V125H-51.3688ZM25.9112 125V31.9091H55.9566C62.5627 31.9091 68.0779 33.1061 72.5021 35.5C76.9566 37.8636 80.3051 41.1515 82.5475 45.3636C84.8203 49.5455 85.9566 54.3485 85.9566 59.7727C85.9566 65.197 84.8203 69.9848 82.5475 74.1364C80.3051 78.2879 76.9718 81.5303 72.5475 83.8636C68.1233 86.197 62.6385 87.3636 56.093 87.3636H30.5021V79.5909H55.8657C60.7142 79.5909 64.7445 78.7879 67.9566 77.1818C71.1991 75.5758 73.6082 73.2879 75.1839 70.3182C76.79 67.3485 77.593 63.8333 77.593 59.7727C77.593 55.7121 76.79 52.1667 75.1839 49.1364C73.5779 46.0758 71.1536 43.7121 67.9112 42.0454C64.6991 40.3788 60.6385 39.5454 55.7294 39.5454H34.4112V125H25.9112ZM66.9566 83L89.8657 125H80.0475L57.3657 83H66.9566ZM107.941 125V31.9091H116.441V117.364H160.805V125H107.941ZM189.721 31.9091V125H181.221V31.9091H189.721ZM288.251 31.9091V125H279.978L224.978 47.0455H224.251V125H215.751V31.9091H223.978L279.16 109.955H279.888V31.9091H288.251ZM347.879 125V118.591L399.561 39.5454H347.607V31.9091H409.698V38.3182L357.97 117.364H410.152V125H347.879ZM494.012 31.9091H502.512V93.5455C502.512 99.8788 501.027 105.545 498.057 110.545C495.087 115.515 490.951 119.439 485.648 122.318C480.375 125.167 474.239 126.591 467.239 126.591C460.269 126.591 454.133 125.152 448.83 122.273C443.527 119.394 439.39 115.47 436.421 110.5C433.451 105.53 431.966 99.8788 431.966 93.5455V31.9091H440.466V92.9545C440.466 97.8939 441.572 102.303 443.784 106.182C445.996 110.03 449.103 113.061 453.103 115.273C457.133 117.485 461.845 118.591 467.239 118.591C472.633 118.591 477.345 117.485 481.375 115.273C485.406 113.061 488.512 110.03 490.693 106.182C492.906 102.303 494.012 97.8939 494.012 92.9545V31.9091ZM528.496 125V31.9091H558.542C565.148 31.9091 570.663 33.1061 575.087 35.5C579.542 37.8636 582.89 41.1515 585.133 45.3636C587.405 49.5455 588.542 54.3485 588.542 59.7727C588.542 65.197 587.405 69.9848 585.133 74.1364C582.89 78.2879 579.557 81.5303 575.133 83.8636C570.708 86.197 565.223 87.3636 558.678 87.3636H533.087V79.5909H558.451C563.299 79.5909 567.33 78.7879 570.542 77.1818C573.784 75.5758 576.193 73.2879 577.769 70.3182C579.375 67.3485 580.178 63.8333 580.178 59.7727C580.178 55.7121 579.375 52.1667 577.769 49.1364C576.163 46.0758 573.739 43.7121 570.496 42.0454C567.284 40.3788 563.223 39.5454 558.314 39.5454H536.996V125H528.496ZM569.542 83L592.451 125H582.633L559.951 83H569.542ZM619.026 31.9091V125H610.526V31.9091H619.026ZM717.965 61H709.42C708.783 57.8182 707.632 54.8788 705.965 52.1818C704.329 49.4545 702.268 47.0758 699.783 45.0455C697.299 43.0152 694.48 41.4394 691.329 40.3182C688.177 39.197 684.768 38.6364 681.102 38.6364C675.223 38.6364 669.859 40.1667 665.011 43.2273C660.193 46.2879 656.329 50.7879 653.42 56.7273C650.541 62.6364 649.102 69.8788 649.102 78.4545C649.102 87.0909 650.541 94.3636 653.42 100.273C656.329 106.182 660.193 110.667 665.011 113.727C669.859 116.758 675.223 118.273 681.102 118.273C684.768 118.273 688.177 117.712 691.329 116.591C694.48 115.47 697.299 113.909 699.783 111.909C702.268 109.879 704.329 107.5 705.965 104.773C707.632 102.045 708.783 99.0909 709.42 95.9091H717.965C717.208 100.182 715.783 104.167 713.693 107.864C711.632 111.53 708.996 114.742 705.783 117.5C702.602 120.258 698.935 122.409 694.783 123.955C690.632 125.5 686.071 126.273 681.102 126.273C673.283 126.273 666.344 124.318 660.283 120.409C654.223 116.47 649.465 110.924 646.011 103.773C642.587 96.6212 640.874 88.1818 640.874 78.4545C640.874 68.7273 642.587 60.2879 646.011 53.1364C649.465 45.9848 654.223 40.4545 660.283 36.5454C666.344 32.6061 673.283 30.6364 681.102 30.6364C686.071 30.6364 690.632 31.4091 694.783 32.9545C698.935 34.4697 702.602 36.6212 705.783 39.4091C708.996 42.1667 711.632 45.3788 713.693 49.0455C715.783 52.7121 717.208 56.697 717.965 61ZM739.211 125V31.9091H747.711V74.5909H800.529V31.9091H809.029V125H800.529V82.2273H747.711V125H739.211ZM872.271 125V31.9091H880.771V82.0455H881.589L927.044 31.9091H938.226L898.453 74.9545L938.044 125H927.68L893.18 80.8636L880.771 94.7727V125H872.271ZM946.824 31.9091H956.642L984.233 76.0909H985.051L1012.64 31.9091H1022.46L988.869 84.6818V125H980.415V84.6818L946.824 31.9091ZM1048.21 31.9091V125H1039.71V31.9091H1048.21ZM1074.37 31.9091L1103.46 113.955H1104.28L1133.37 31.9091H1142.28L1108.42 125H1099.33L1065.46 31.9091H1074.37ZM1196.8 125V31.9091H1205.3V117.364H1249.66V125H1196.8ZM1261.46 31.9091L1290.55 113.955H1291.37L1320.46 31.9091H1329.37L1295.51 125H1286.42L1252.55 31.9091H1261.46ZM1355.11 31.9091V125H1346.61V31.9091H1355.11ZM1381.27 31.9091L1410.36 113.955H1411.18L1440.27 31.9091H1449.18L1415.32 125H1406.23L1372.36 31.9091H1381.27ZM1503.7 125V31.9091H1533.74C1540.35 31.9091 1545.86 33.1818 1550.29 35.7273C1554.74 38.2424 1558.09 41.6667 1560.33 46C1562.61 50.3333 1563.74 55.2121 1563.74 60.6364C1563.74 66.0606 1562.62 70.9545 1560.38 75.3182C1558.14 79.6515 1554.8 83.0909 1550.38 85.6364C1545.95 88.1515 1540.45 89.4091 1533.88 89.4091H1510.24V81.7727H1533.65C1538.53 81.7727 1542.57 80.8636 1545.79 79.0455C1549 77.197 1551.39 74.6818 1552.97 71.5C1554.57 68.3182 1555.38 64.697 1555.38 60.6364C1555.38 56.5758 1554.57 52.9545 1552.97 49.7727C1551.39 46.5909 1548.98 44.0909 1545.74 42.2727C1542.53 40.4545 1538.45 39.5454 1533.51 39.5454H1512.2V125H1503.7ZM1661.29 78.4545C1661.29 88.1515 1659.57 96.5909 1656.11 103.773C1652.66 110.924 1647.9 116.47 1641.84 120.409C1635.81 124.318 1628.87 126.273 1621.02 126.273C1613.17 126.273 1606.22 124.318 1600.16 120.409C1594.13 116.47 1589.39 110.924 1585.93 103.773C1582.51 96.5909 1580.79 88.1515 1580.79 78.4545C1580.79 68.7576 1582.51 60.3333 1585.93 53.1818C1589.39 46 1594.14 40.4545 1600.2 36.5454C1606.26 32.6061 1613.2 30.6364 1621.02 30.6364C1628.87 30.6364 1635.81 32.6061 1641.84 36.5454C1647.9 40.4545 1652.66 46 1656.11 53.1818C1659.57 60.3333 1661.29 68.7576 1661.29 78.4545ZM1653.02 78.4545C1653.02 70.1212 1651.63 62.9848 1648.84 57.0455C1646.05 51.0758 1642.25 46.5151 1637.43 43.3636C1632.61 40.2121 1627.14 38.6364 1621.02 38.6364C1614.93 38.6364 1609.48 40.2121 1604.66 43.3636C1599.84 46.5151 1596.02 51.0606 1593.2 57C1590.42 62.9394 1589.02 70.0909 1589.02 78.4545C1589.02 86.7879 1590.42 93.9242 1593.2 99.8636C1595.99 105.803 1599.79 110.364 1604.61 113.545C1609.43 116.697 1614.9 118.273 1621.02 118.273C1627.14 118.273 1632.61 116.697 1637.43 113.545C1642.28 110.394 1646.1 105.848 1648.89 99.9091C1651.67 93.9394 1653.05 86.7879 1653.02 78.4545ZM1683.13 125V31.9091H1691.63V117.364H1735.99V125H1683.13ZM1762.42 125H1753.51L1787.38 31.9091H1796.47L1830.33 125H1821.42L1792.24 42.9545H1791.6L1762.42 125ZM1768.83 89.3182H1815.01V96.9545H1768.83V89.3182ZM1920.07 31.9091V125H1911.79L1856.79 47.0455H1856.07V125H1847.57V31.9091H1855.79L1910.98 109.955H1911.7V31.9091H1920.07ZM1973.37 125H1946.1V31.9091H1975.01C1983.88 31.9091 1991.48 33.7576 1997.78 37.4545C2004.11 41.1515 2008.96 46.4545 2012.32 53.3636C2015.69 60.2727 2017.37 68.5606 2017.37 78.2273C2017.37 87.9848 2015.64 96.3636 2012.19 103.364C2008.76 110.333 2003.76 115.682 1997.19 119.409C1990.64 123.136 1982.7 125 1973.37 125ZM1954.6 117.364H1972.87C1980.87 117.364 1987.57 115.788 1992.96 112.636C1998.35 109.485 2002.4 104.985 2005.1 99.1364C2007.79 93.2879 2009.14 86.3182 2009.14 78.2273C2009.11 70.197 2007.78 63.2879 2005.14 57.5C2002.54 51.7121 1998.66 47.2727 1993.51 44.1818C1988.38 41.0909 1982.05 39.5454 1974.51 39.5454H1954.6V117.364ZM-3.36364 282H-30.6364V188.909H-1.72727C7.15152 188.909 14.7424 190.758 21.0455 194.455C27.3788 198.152 32.2273 203.455 35.5909 210.364C38.9545 217.273 40.6364 225.561 40.6364 235.227C40.6364 244.985 38.9091 253.364 35.4545 260.364C32.0303 267.333 27.0303 272.682 20.4545 276.409C13.9091 280.136 5.9697 282 -3.36364 282ZM-22.1364 274.364H-3.86364C4.13636 274.364 10.8333 272.788 16.2273 269.636C21.6212 266.485 25.6667 261.985 28.3636 256.136C31.0606 250.288 32.4091 243.318 32.4091 235.227C32.3788 227.197 31.0455 220.288 28.4091 214.5C25.803 208.712 21.9242 204.273 16.7727 201.182C11.6515 198.091 5.31818 196.545 -2.22727 196.545H-22.1364V274.364ZM62.5186 282V188.909H116.382V196.545H71.0186V231.591H112.155V239.227H71.0186V282H62.5186ZM166.071 282H138.799V188.909H167.708C176.587 188.909 184.177 190.758 190.48 194.455C196.814 198.152 201.662 203.455 205.026 210.364C208.39 217.273 210.071 225.561 210.071 235.227C210.071 244.985 208.344 253.364 204.89 260.364C201.465 267.333 196.465 272.682 189.89 276.409C183.344 280.136 175.405 282 166.071 282ZM147.299 274.364H165.571C173.571 274.364 180.268 272.788 185.662 269.636C191.056 266.485 195.102 261.985 197.799 256.136C200.496 250.288 201.844 243.318 201.844 235.227C201.814 227.197 200.48 220.288 197.844 214.5C195.238 208.712 191.359 204.273 186.208 201.182C181.087 198.091 174.753 196.545 167.208 196.545H147.299V274.364ZM285.415 282L259.915 188.909H268.552L289.643 268.955H290.37L311.461 188.909H321.279L342.37 268.955H343.097L364.188 188.909H372.87L347.37 282H338.279L316.688 203.045H316.097L294.506 282H285.415ZM382.4 282H373.491L407.355 188.909H416.445L450.309 282H441.4L412.218 199.955H411.582L382.4 282ZM388.809 246.318H434.991V253.955H388.809V246.318ZM467.544 282V188.909H497.589C504.195 188.909 509.71 190.106 514.135 192.5C518.589 194.864 521.938 198.152 524.18 202.364C526.453 206.545 527.589 211.348 527.589 216.773C527.589 222.197 526.453 226.985 524.18 231.136C521.938 235.288 518.604 238.53 514.18 240.864C509.756 243.197 504.271 244.364 497.725 244.364H472.135V236.591H497.498C502.347 236.591 506.377 235.788 509.589 234.182C512.832 232.576 515.241 230.288 516.816 227.318C518.422 224.348 519.225 220.833 519.225 216.773C519.225 212.712 518.422 209.167 516.816 206.136C515.21 203.076 512.786 200.712 509.544 199.045C506.332 197.379 502.271 196.545 497.362 196.545H476.044V282H467.544ZM508.589 240L531.498 282H521.68L498.998 240H508.589ZM600.119 212.182C599.604 207 597.316 202.879 593.255 199.818C589.195 196.758 584.089 195.227 577.937 195.227C573.604 195.227 569.786 195.97 566.483 197.455C563.21 198.939 560.634 201 558.755 203.636C556.907 206.242 555.983 209.212 555.983 212.545C555.983 215 556.513 217.152 557.574 219C558.634 220.848 560.059 222.439 561.846 223.773C563.665 225.076 565.665 226.197 567.846 227.136C570.059 228.076 572.286 228.864 574.528 229.5L584.346 232.318C587.316 233.136 590.286 234.182 593.255 235.455C596.225 236.727 598.937 238.333 601.392 240.273C603.877 242.182 605.862 244.53 607.346 247.318C608.862 250.076 609.619 253.394 609.619 257.273C609.619 262.242 608.331 266.712 605.755 270.682C603.18 274.652 599.483 277.803 594.665 280.136C589.846 282.439 584.074 283.591 577.346 283.591C571.013 283.591 565.513 282.545 560.846 280.455C556.18 278.333 552.513 275.409 549.846 271.682C547.18 267.955 545.68 263.636 545.346 258.727H554.074C554.377 262.394 555.589 265.5 557.71 268.045C559.831 270.591 562.589 272.53 565.983 273.864C569.377 275.167 573.165 275.818 577.346 275.818C581.983 275.818 586.104 275.045 589.71 273.5C593.346 271.924 596.195 269.742 598.255 266.955C600.346 264.136 601.392 260.864 601.392 257.136C601.392 253.985 600.574 251.348 598.937 249.227C597.301 247.076 595.013 245.273 592.074 243.818C589.165 242.364 585.786 241.076 581.937 239.955L570.801 236.682C563.498 234.5 557.831 231.485 553.801 227.636C549.771 223.788 547.755 218.879 547.755 212.909C547.755 207.909 549.089 203.515 551.755 199.727C554.452 195.909 558.089 192.939 562.665 190.818C567.271 188.667 572.437 187.591 578.165 187.591C583.952 187.591 589.074 188.652 593.528 190.773C597.983 192.894 601.513 195.818 604.119 199.545C606.755 203.242 608.165 207.455 608.346 212.182H600.119ZM631.49 282H622.581L656.445 188.909H665.535L699.399 282H690.49L661.308 199.955H660.672L631.49 282ZM637.899 246.318H684.081V253.955H637.899V246.318ZM725.565 282L700.065 188.909H708.702L729.793 268.955H730.52L751.611 188.909H761.429L782.52 268.955H783.247L804.338 188.909H813.02L787.52 282H778.429L756.838 203.045H756.247L734.656 282H725.565ZM875.444 188.909V282H866.944V188.909H875.444ZM901.474 282V188.909H931.519C938.125 188.909 943.64 190.106 948.065 192.5C952.519 194.864 955.868 198.152 958.11 202.364C960.383 206.545 961.519 211.348 961.519 216.773C961.519 222.197 960.383 226.985 958.11 231.136C955.868 235.288 952.534 238.53 948.11 240.864C943.686 243.197 938.201 244.364 931.655 244.364H906.065V236.591H931.428C936.277 236.591 940.307 235.788 943.519 234.182C946.762 232.576 949.171 230.288 950.746 227.318C952.352 224.348 953.155 220.833 953.155 216.773C953.155 212.712 952.352 209.167 950.746 206.136C949.14 203.076 946.716 200.712 943.474 199.045C940.262 197.379 936.201 196.545 931.292 196.545H909.974V282H901.474ZM942.519 240L965.428 282H955.61L932.928 240H942.519ZM983.504 282V188.909H1037.5V196.545H992.004V231.591H1034.64V239.227H992.004V274.364H1038.41V282H983.504ZM1060.78 282V188.909H1069.28V274.364H1113.65V282H1060.78ZM1140.07 282H1131.17L1165.03 188.909H1174.12L1207.98 282H1199.07L1169.89 199.955H1169.26L1140.07 282ZM1146.48 246.318H1192.67V253.955H1146.48V246.318ZM1297.72 188.909V282H1289.45L1234.45 204.045H1233.72V282H1225.22V188.909H1233.45L1288.63 266.955H1289.35V188.909H1297.72ZM1351.02 282H1323.75V188.909H1352.66C1361.54 188.909 1369.13 190.758 1375.43 194.455C1381.76 198.152 1386.61 203.455 1389.98 210.364C1393.34 217.273 1395.02 225.561 1395.02 235.227C1395.02 244.985 1393.29 253.364 1389.84 260.364C1386.42 267.333 1381.42 272.682 1374.84 276.409C1368.29 280.136 1360.35 282 1351.02 282ZM1332.25 274.364H1350.52C1358.52 274.364 1365.22 272.788 1370.61 269.636C1376.01 266.485 1380.05 261.985 1382.75 256.136C1385.45 250.288 1386.79 243.318 1386.79 235.227C1386.76 227.197 1385.43 220.288 1382.79 214.5C1380.19 208.712 1376.31 204.273 1371.16 201.182C1366.04 198.091 1359.7 196.545 1352.16 196.545H1332.25V274.364ZM1481.46 282H1454.18V188.909H1483.09C1491.97 188.909 1499.56 190.758 1505.87 194.455C1512.2 198.152 1517.05 203.455 1520.41 210.364C1523.77 217.273 1525.46 225.561 1525.46 235.227C1525.46 244.985 1523.73 253.364 1520.27 260.364C1516.85 267.333 1511.85 272.682 1505.27 276.409C1498.73 280.136 1490.79 282 1481.46 282ZM1462.68 274.364H1480.96C1488.96 274.364 1495.65 272.788 1501.05 269.636C1506.44 266.485 1510.49 261.985 1513.18 256.136C1515.88 250.288 1517.23 243.318 1517.23 235.227C1517.2 227.197 1515.87 220.288 1513.23 214.5C1510.62 208.712 1506.74 204.273 1501.59 201.182C1496.47 198.091 1490.14 196.545 1482.59 196.545H1462.68V274.364ZM1609.38 188.909H1617.88V250.545C1617.88 256.879 1616.4 262.545 1613.43 267.545C1610.46 272.515 1606.32 276.439 1601.02 279.318C1595.75 282.167 1589.61 283.591 1582.61 283.591C1575.64 283.591 1569.51 282.152 1564.2 279.273C1558.9 276.394 1554.76 272.47 1551.79 267.5C1548.82 262.53 1547.34 256.879 1547.34 250.545V188.909H1555.84V249.955C1555.84 254.894 1556.94 259.303 1559.16 263.182C1561.37 267.03 1564.47 270.061 1568.47 272.273C1572.51 274.485 1577.22 275.591 1582.61 275.591C1588.01 275.591 1592.72 274.485 1596.75 272.273C1600.78 270.061 1603.88 267.03 1606.07 263.182C1608.28 259.303 1609.38 254.894 1609.38 249.955V188.909ZM1643.87 282V188.909H1675.28C1681.34 188.909 1686.38 189.97 1690.41 192.091C1694.47 194.212 1697.52 197.106 1699.55 200.773C1701.58 204.439 1702.6 208.606 1702.6 213.273C1702.6 217.152 1701.94 220.47 1700.64 223.227C1699.34 225.985 1697.57 228.212 1695.32 229.909C1693.08 231.606 1690.58 232.833 1687.82 233.591V234.318C1690.82 234.53 1693.73 235.591 1696.55 237.5C1699.37 239.379 1701.69 242.015 1703.51 245.409C1705.32 248.803 1706.23 252.864 1706.23 257.591C1706.23 262.288 1705.19 266.485 1703.1 270.182C1701.01 273.848 1697.79 276.742 1693.46 278.864C1689.16 280.955 1683.67 282 1677.01 282H1643.87ZM1652.37 274.364H1677.01C1684.19 274.364 1689.49 272.773 1692.91 269.591C1696.37 266.409 1698.1 262.409 1698.1 257.591C1698.1 254.045 1697.23 250.833 1695.51 247.955C1693.81 245.045 1691.4 242.742 1688.28 241.045C1685.19 239.348 1681.55 238.5 1677.37 238.5H1652.37V274.364ZM1652.37 230.955H1676.05C1679.72 230.955 1682.93 230.197 1685.69 228.682C1688.44 227.167 1690.6 225.076 1692.14 222.409C1693.69 219.742 1694.46 216.697 1694.46 213.273C1694.46 208.333 1692.85 204.318 1689.64 201.227C1686.43 198.106 1681.64 196.545 1675.28 196.545H1652.37V230.955ZM1728.02 282V188.909H1736.52V274.364H1780.89V282H1728.02ZM1809.8 188.909V282H1801.3V188.909H1809.8ZM1908.33 188.909V282H1900.06L1845.06 204.045H1844.33V282H1835.83V188.909H1844.06L1899.24 266.955H1899.97V188.909H1908.33ZM-70.0223 375C-70.8708 371.909 -72.1132 369.015 -73.7496 366.318C-75.386 363.591 -77.4163 361.212 -79.8405 359.182C-82.2344 357.121 -85.0072 355.515 -88.1587 354.364C-91.2799 353.212 -94.7647 352.636 -98.6132 352.636C-104.674 352.636 -110.098 354.212 -114.886 357.364C-119.674 360.515 -123.462 365.061 -126.25 371C-129.007 376.939 -130.386 384.091 -130.386 392.455C-130.386 400.788 -128.992 407.924 -126.204 413.864C-123.416 419.803 -119.598 424.364 -114.75 427.545C-109.871 430.697 -104.295 432.273 -98.0223 432.273C-92.295 432.273 -87.2344 431 -82.8405 428.455C-78.4466 425.909 -75.0223 422.273 -72.5678 417.545C-70.0829 412.818 -68.8708 407.197 -68.9314 400.682L-66.2041 401.545H-96.0223V393.909H-60.6587V401.545C-60.6587 409.485 -62.2647 416.348 -65.4769 422.136C-68.689 427.924 -73.0981 432.394 -78.7041 435.545C-84.3102 438.697 -90.7496 440.273 -98.0223 440.273C-106.144 440.273 -113.25 438.318 -119.34 434.409C-125.431 430.47 -130.174 424.924 -133.568 417.773C-136.931 410.591 -138.613 402.152 -138.613 392.455C-138.613 385.152 -137.644 378.561 -135.704 372.682C-133.765 366.803 -131.022 361.773 -127.477 357.591C-123.901 353.409 -119.674 350.212 -114.795 348C-109.916 345.758 -104.522 344.636 -98.6132 344.636C-93.5223 344.636 -88.8708 345.439 -84.6587 347.045C-80.4163 348.652 -76.689 350.864 -73.4769 353.682C-70.2344 356.47 -67.5829 359.697 -65.5223 363.364C-63.4314 367 -62.0223 370.879 -61.295 375H-70.0223ZM-41.015 439H-49.9241L-16.0605 345.909H-6.96959L26.8941 439H17.985L-11.1969 356.955H-11.8332L-41.015 439ZM-34.606 403.318H11.5759V410.955H-34.606V403.318ZM44.1286 439V345.909H52.6286V431.364H96.9922V439H44.1286ZM133.59 439L108.09 345.909H116.727L137.818 425.955H138.545L159.636 345.909H169.454L190.545 425.955H191.272L212.363 345.909H221.045L195.545 439H186.454L164.863 360.045H164.272L142.681 439H133.59ZM230.575 439H221.666L255.529 345.909H264.62L298.484 439H289.575L260.393 356.955H259.757L230.575 439ZM236.984 403.318H283.166V410.955H236.984V403.318ZM297.491 345.909H307.309L334.9 390.091H335.719L363.309 345.909H373.128L339.537 398.682V439H331.082V398.682L297.491 345.909ZM500.563 375H492.017C491.381 371.818 490.229 368.879 488.563 366.182C486.926 363.455 484.866 361.076 482.381 359.045C479.896 357.015 477.078 355.439 473.926 354.318C470.775 353.197 467.366 352.636 463.699 352.636C457.82 352.636 452.457 354.167 447.608 357.227C442.79 360.288 438.926 364.788 436.017 370.727C433.138 376.636 431.699 383.879 431.699 392.455C431.699 401.091 433.138 408.364 436.017 414.273C438.926 420.182 442.79 424.667 447.608 427.727C452.457 430.758 457.82 432.273 463.699 432.273C467.366 432.273 470.775 431.712 473.926 430.591C477.078 429.47 479.896 427.909 482.381 425.909C484.866 423.879 486.926 421.5 488.563 418.773C490.229 416.045 491.381 413.091 492.017 409.909H500.563C499.805 414.182 498.381 418.167 496.29 421.864C494.229 425.53 491.593 428.742 488.381 431.5C485.199 434.258 481.532 436.409 477.381 437.955C473.229 439.5 468.669 440.273 463.699 440.273C455.881 440.273 448.941 438.318 442.881 434.409C436.82 430.47 432.063 424.924 428.608 417.773C425.184 410.621 423.472 402.182 423.472 392.455C423.472 382.727 425.184 374.288 428.608 367.136C432.063 359.985 436.82 354.455 442.881 350.545C448.941 346.606 455.881 344.636 463.699 344.636C468.669 344.636 473.229 345.409 477.381 346.955C481.532 348.47 485.199 350.621 488.381 353.409C491.593 356.167 494.229 359.379 496.29 363.045C498.381 366.712 499.805 370.697 500.563 375ZM598.127 392.455C598.127 402.152 596.399 410.591 592.945 417.773C589.49 424.924 584.733 430.47 578.672 434.409C572.642 438.318 565.703 440.273 557.854 440.273C550.006 440.273 543.051 438.318 536.99 434.409C530.96 430.47 526.218 424.924 522.763 417.773C519.339 410.591 517.627 402.152 517.627 392.455C517.627 382.758 519.339 374.333 522.763 367.182C526.218 360 530.975 354.455 537.036 350.545C543.096 346.606 550.036 344.636 557.854 344.636C565.703 344.636 572.642 346.606 578.672 350.545C584.733 354.455 589.49 360 592.945 367.182C596.399 374.333 598.127 382.758 598.127 392.455ZM589.854 392.455C589.854 384.121 588.46 376.985 585.672 371.045C582.884 365.076 579.081 360.515 574.263 357.364C569.445 354.212 563.975 352.636 557.854 352.636C551.763 352.636 546.309 354.212 541.49 357.364C536.672 360.515 532.854 365.061 530.036 371C527.248 376.939 525.854 384.091 525.854 392.455C525.854 400.788 527.248 407.924 530.036 413.864C532.824 419.803 536.627 424.364 541.445 427.545C546.263 430.697 551.733 432.273 557.854 432.273C563.975 432.273 569.445 430.697 574.263 427.545C579.112 424.394 582.93 419.848 585.718 413.909C588.506 407.939 589.884 400.788 589.854 392.455ZM647.236 439H619.964V345.909H648.873C657.751 345.909 665.342 347.758 671.645 351.455C677.979 355.152 682.827 360.455 686.191 367.364C689.555 374.273 691.236 382.561 691.236 392.227C691.236 401.985 689.509 410.364 686.055 417.364C682.63 424.333 677.63 429.682 671.055 433.409C664.509 437.136 656.57 439 647.236 439ZM628.464 431.364H646.736C654.736 431.364 661.433 429.788 666.827 426.636C672.221 423.485 676.267 418.985 678.964 413.136C681.661 407.288 683.009 400.318 683.009 392.227C682.979 384.197 681.645 377.288 679.009 371.5C676.403 365.712 672.524 361.273 667.373 358.182C662.251 355.091 655.918 353.545 648.373 353.545H628.464V431.364ZM713.119 439V345.909H767.119V353.545H721.619V388.591H764.255V396.227H721.619V431.364H768.028V439H713.119ZM878.224 369.182C877.709 364 875.421 359.879 871.36 356.818C867.3 353.758 862.194 352.227 856.042 352.227C851.709 352.227 847.891 352.97 844.588 354.455C841.315 355.939 838.739 358 836.86 360.636C835.012 363.242 834.088 366.212 834.088 369.545C834.088 372 834.618 374.152 835.679 376C836.739 377.848 838.163 379.439 839.951 380.773C841.769 382.076 843.769 383.197 845.951 384.136C848.163 385.076 850.391 385.864 852.633 386.5L862.451 389.318C865.421 390.136 868.391 391.182 871.36 392.455C874.33 393.727 877.042 395.333 879.497 397.273C881.982 399.182 883.966 401.53 885.451 404.318C886.966 407.076 887.724 410.394 887.724 414.273C887.724 419.242 886.436 423.712 883.86 427.682C881.285 431.652 877.588 434.803 872.769 437.136C867.951 439.439 862.179 440.591 855.451 440.591C849.118 440.591 843.618 439.545 838.951 437.455C834.285 435.333 830.618 432.409 827.951 428.682C825.285 424.955 823.785 420.636 823.451 415.727H832.179C832.482 419.394 833.694 422.5 835.815 425.045C837.936 427.591 840.694 429.53 844.088 430.864C847.482 432.167 851.269 432.818 855.451 432.818C860.088 432.818 864.209 432.045 867.815 430.5C871.451 428.924 874.3 426.742 876.36 423.955C878.451 421.136 879.497 417.864 879.497 414.136C879.497 410.985 878.679 408.348 877.042 406.227C875.406 404.076 873.118 402.273 870.179 400.818C867.269 399.364 863.891 398.076 860.042 396.955L848.906 393.682C841.603 391.5 835.936 388.485 831.906 384.636C827.876 380.788 825.86 375.879 825.86 369.909C825.86 364.909 827.194 360.515 829.86 356.727C832.557 352.909 836.194 349.939 840.769 347.818C845.376 345.667 850.542 344.591 856.269 344.591C862.057 344.591 867.179 345.652 871.633 347.773C876.088 349.894 879.618 352.818 882.224 356.545C884.86 360.242 886.269 364.455 886.451 369.182H878.224ZM909.459 439V345.909H917.959V431.364H962.322V439H909.459ZM982.739 439V345.909H1036.74V353.545H991.239V388.591H1033.88V396.227H991.239V431.364H1037.65V439H982.739ZM1060.02 439V345.909H1114.02V353.545H1068.52V388.591H1111.15V396.227H1068.52V431.364H1114.93V439H1060.02ZM1137.3 439V345.909H1167.34C1173.95 345.909 1179.47 347.182 1183.89 349.727C1188.34 352.242 1191.69 355.667 1193.93 360C1196.21 364.333 1197.34 369.212 1197.34 374.636C1197.34 380.061 1196.22 384.955 1193.98 389.318C1191.74 393.652 1188.4 397.091 1183.98 399.636C1179.56 402.152 1174.06 403.409 1167.48 403.409H1143.84V395.773H1167.25C1172.13 395.773 1176.18 394.864 1179.39 393.045C1182.6 391.197 1185 388.682 1186.57 385.5C1188.18 382.318 1188.98 378.697 1188.98 374.636C1188.98 370.576 1188.18 366.955 1186.57 363.773C1185 360.591 1182.59 358.091 1179.34 356.273C1176.13 354.455 1172.06 353.545 1167.12 353.545H1145.8V439H1137.3ZM1255.86 439V345.909H1285.9C1292.51 345.909 1298.03 347.106 1302.45 349.5C1306.9 351.864 1310.25 355.152 1312.49 359.364C1314.77 363.545 1315.9 368.348 1315.9 373.773C1315.9 379.197 1314.77 383.985 1312.49 388.136C1310.25 392.288 1306.92 395.53 1302.49 397.864C1298.07 400.197 1292.59 401.364 1286.04 401.364H1260.45V393.591H1285.81C1290.66 393.591 1294.69 392.788 1297.9 391.182C1301.15 389.576 1303.56 387.288 1305.13 384.318C1306.74 381.348 1307.54 377.833 1307.54 373.773C1307.54 369.712 1306.74 366.167 1305.13 363.136C1303.53 360.076 1301.1 357.712 1297.86 356.045C1294.65 354.379 1290.59 353.545 1285.68 353.545H1264.36V439H1255.86ZM1296.9 397L1319.81 439H1309.99L1287.31 397H1296.9ZM1337.89 439V345.909H1391.89V353.545H1346.39V388.591H1389.02V396.227H1346.39V431.364H1392.8V439H1337.89ZM1415.17 439V345.909H1423.67V431.364H1468.03V439H1415.17ZM1494.46 439H1485.55L1519.41 345.909H1528.51L1562.37 439H1553.46L1524.28 356.955H1523.64L1494.46 439ZM1500.87 403.318H1547.05V410.955H1500.87V403.318ZM1581.06 345.909L1606.83 386.318H1607.42L1633.19 345.909H1643.24L1613.29 392.455L1643.24 439H1633.19L1607.42 399.045H1606.83L1581.06 439H1571.01L1601.42 392.455L1571.01 345.909H1581.06ZM1697.91 345.909H1707.73L1741.5 427H1742.32L1776.1 345.909H1785.91V439H1777.91V363.864H1777.19L1745.78 439H1738.05L1706.64 363.864H1705.91V439H1697.91V345.909ZM1820.44 345.909V439H1811.94V345.909H1820.44ZM1918.97 345.909V439H1910.7L1855.7 361.045H1854.97V439H1846.47V345.909H1854.7L1909.88 423.955H1910.61V345.909H1918.97ZM1972.28 439H1945V345.909H1973.91C1982.79 345.909 1990.38 347.758 1996.69 351.455C2003.02 355.152 2007.87 360.455 2011.23 367.364C2014.59 374.273 2016.28 382.561 2016.28 392.227C2016.28 401.985 2014.55 410.364 2011.09 417.364C2007.67 424.333 2002.67 429.682 1996.09 433.409C1989.55 437.136 1981.61 439 1972.28 439ZM1953.5 431.364H1971.78C1979.78 431.364 1986.47 429.788 1991.87 426.636C1997.26 423.485 2001.31 418.985 2004 413.136C2006.7 407.288 2008.05 400.318 2008.05 392.227C2008.02 384.197 2006.69 377.288 2004.05 371.5C2001.44 365.712 1997.56 361.273 1992.41 358.182C1987.29 355.091 1980.96 353.545 1973.41 353.545H1953.5V431.364ZM-67.9639 596V502.909H-14.1002V510.545H-59.4639V545.591H-18.3275V553.227H-59.4639V596H-67.9639ZM84.6343 549.455C84.6343 559.152 82.907 567.591 79.4525 574.773C75.9979 581.924 71.2404 587.47 65.1798 591.409C59.1495 595.318 52.2101 597.273 44.3616 597.273C36.5131 597.273 29.5585 595.318 23.4979 591.409C17.4676 587.47 12.7252 581.924 9.27067 574.773C5.84642 567.591 4.1343 559.152 4.1343 549.455C4.1343 539.758 5.84642 531.333 9.27067 524.182C12.7252 517 17.4828 511.455 23.5434 507.545C29.604 503.606 36.5434 501.636 44.3616 501.636C52.2101 501.636 59.1495 503.606 65.1798 507.545C71.2404 511.455 75.9979 517 79.4525 524.182C82.907 531.333 84.6343 539.758 84.6343 549.455ZM76.3616 549.455C76.3616 541.121 74.9676 533.985 72.1798 528.045C69.3919 522.076 65.5888 517.515 60.7707 514.364C55.9525 511.212 50.4828 509.636 44.3616 509.636C38.2707 509.636 32.8161 511.212 27.9979 514.364C23.1798 517.515 19.3616 522.061 16.5434 528C13.7555 533.939 12.3616 541.091 12.3616 549.455C12.3616 557.788 13.7555 564.924 16.5434 570.864C19.3313 576.803 23.1343 581.364 27.9525 584.545C32.7707 587.697 38.2404 589.273 44.3616 589.273C50.4828 589.273 55.9525 587.697 60.7707 584.545C65.6192 581.394 69.4373 576.848 72.2252 570.909C75.0131 564.939 76.3919 557.788 76.3616 549.455ZM179.38 532H170.835C170.198 528.818 169.047 525.879 167.38 523.182C165.744 520.455 163.683 518.076 161.198 516.045C158.714 514.015 155.895 512.439 152.744 511.318C149.592 510.197 146.183 509.636 142.517 509.636C136.638 509.636 131.274 511.167 126.426 514.227C121.607 517.288 117.744 521.788 114.835 527.727C111.956 533.636 110.517 540.879 110.517 549.455C110.517 558.091 111.956 565.364 114.835 571.273C117.744 577.182 121.607 581.667 126.426 584.727C131.274 587.758 136.638 589.273 142.517 589.273C146.183 589.273 149.592 588.712 152.744 587.591C155.895 586.47 158.714 584.909 161.198 582.909C163.683 580.879 165.744 578.5 167.38 575.773C169.047 573.045 170.198 570.091 170.835 566.909H179.38C178.623 571.182 177.198 575.167 175.107 578.864C173.047 582.53 170.411 585.742 167.198 588.5C164.017 591.258 160.35 593.409 156.198 594.955C152.047 596.5 147.486 597.273 142.517 597.273C134.698 597.273 127.759 595.318 121.698 591.409C115.638 587.47 110.88 581.924 107.426 574.773C104.001 567.621 102.289 559.182 102.289 549.455C102.289 539.727 104.001 531.288 107.426 524.136C110.88 516.985 115.638 511.455 121.698 507.545C127.759 503.606 134.698 501.636 142.517 501.636C147.486 501.636 152.047 502.409 156.198 503.955C160.35 505.47 164.017 507.621 167.198 510.409C170.411 513.167 173.047 516.379 175.107 520.045C177.198 523.712 178.623 527.697 179.38 532ZM262.672 502.909H271.172V564.545C271.172 570.879 269.687 576.545 266.717 581.545C263.747 586.515 259.611 590.439 254.308 593.318C249.035 596.167 242.899 597.591 235.899 597.591C228.929 597.591 222.793 596.152 217.49 593.273C212.187 590.394 208.05 586.47 205.081 581.5C202.111 576.53 200.626 570.879 200.626 564.545V502.909H209.126V563.955C209.126 568.894 210.232 573.303 212.444 577.182C214.656 581.03 217.762 584.061 221.762 586.273C225.793 588.485 230.505 589.591 235.899 589.591C241.293 589.591 246.005 588.485 250.035 586.273C254.066 584.061 257.172 581.03 259.353 577.182C261.566 573.303 262.672 568.894 262.672 563.955V502.909ZM347.702 526.182C347.186 521 344.899 516.879 340.838 513.818C336.777 510.758 331.671 509.227 325.52 509.227C321.186 509.227 317.368 509.97 314.065 511.455C310.792 512.939 308.217 515 306.338 517.636C304.489 520.242 303.565 523.212 303.565 526.545C303.565 529 304.096 531.152 305.156 533C306.217 534.848 307.641 536.439 309.429 537.773C311.247 539.076 313.247 540.197 315.429 541.136C317.641 542.076 319.868 542.864 322.111 543.5L331.929 546.318C334.899 547.136 337.868 548.182 340.838 549.455C343.808 550.727 346.52 552.333 348.974 554.273C351.459 556.182 353.444 558.53 354.929 561.318C356.444 564.076 357.202 567.394 357.202 571.273C357.202 576.242 355.914 580.712 353.338 584.682C350.762 588.652 347.065 591.803 342.247 594.136C337.429 596.439 331.656 597.591 324.929 597.591C318.596 597.591 313.096 596.545 308.429 594.455C303.762 592.333 300.096 589.409 297.429 585.682C294.762 581.955 293.262 577.636 292.929 572.727H301.656C301.959 576.394 303.171 579.5 305.292 582.045C307.414 584.591 310.171 586.53 313.565 587.864C316.959 589.167 320.747 589.818 324.929 589.818C329.565 589.818 333.686 589.045 337.292 587.5C340.929 585.924 343.777 583.742 345.838 580.955C347.929 578.136 348.974 574.864 348.974 571.136C348.974 567.985 348.156 565.348 346.52 563.227C344.883 561.076 342.596 559.273 339.656 557.818C336.747 556.364 333.368 555.076 329.52 553.955L318.383 550.682C311.08 548.5 305.414 545.485 301.383 541.636C297.353 537.788 295.338 532.879 295.338 526.909C295.338 521.909 296.671 517.515 299.338 513.727C302.035 509.909 305.671 506.939 310.247 504.818C314.853 502.667 320.02 501.591 325.747 501.591C331.535 501.591 336.656 502.652 341.111 504.773C345.565 506.894 349.096 509.818 351.702 513.545C354.338 517.242 355.747 521.455 355.929 526.182H347.702ZM416.216 502.909H426.034L459.807 584H460.625L494.398 502.909H504.216V596H496.216V520.864H495.489L464.08 596H456.352L424.943 520.864H424.216V596H416.216V502.909ZM606.564 549.455C606.564 559.152 604.837 567.591 601.383 574.773C597.928 581.924 593.17 587.47 587.11 591.409C581.079 595.318 574.14 597.273 566.292 597.273C558.443 597.273 551.489 595.318 545.428 591.409C539.398 587.47 534.655 581.924 531.201 574.773C527.776 567.591 526.064 559.152 526.064 549.455C526.064 539.758 527.776 531.333 531.201 524.182C534.655 517 539.413 511.455 545.473 507.545C551.534 503.606 558.473 501.636 566.292 501.636C574.14 501.636 581.079 503.606 587.11 507.545C593.17 511.455 597.928 517 601.383 524.182C604.837 531.333 606.564 539.758 606.564 549.455ZM598.292 549.455C598.292 541.121 596.898 533.985 594.11 528.045C591.322 522.076 587.519 517.515 582.701 514.364C577.883 511.212 572.413 509.636 566.292 509.636C560.201 509.636 554.746 511.212 549.928 514.364C545.11 517.515 541.292 522.061 538.473 528C535.686 533.939 534.292 541.091 534.292 549.455C534.292 557.788 535.686 564.924 538.473 570.864C541.261 576.803 545.064 581.364 549.883 584.545C554.701 587.697 560.17 589.273 566.292 589.273C572.413 589.273 577.883 587.697 582.701 584.545C587.549 581.394 591.367 576.848 594.155 570.909C596.943 564.939 598.322 557.788 598.292 549.455ZM618.89 510.545V502.909H686.39V510.545H656.89V596H648.39V510.545H618.89ZM715.306 502.909V596H706.806V502.909H715.306ZM741.472 502.909L770.563 584.955H771.382L800.472 502.909H809.382L775.518 596H766.427L732.563 502.909H741.472ZM818.753 596H809.843L843.707 502.909H852.798L886.662 596H877.753L848.571 513.955H847.934L818.753 596ZM825.162 560.318H871.343V567.955H825.162V560.318ZM887.385 510.545V502.909H954.885V510.545H925.385V596H916.885V510.545H887.385ZM983.801 502.909V596H975.301V502.909H983.801ZM1086.15 549.455C1086.15 559.152 1084.42 567.591 1080.97 574.773C1077.51 581.924 1072.76 587.47 1066.69 591.409C1060.66 595.318 1053.73 597.273 1045.88 597.273C1038.03 597.273 1031.07 595.318 1025.01 591.409C1018.98 587.47 1014.24 581.924 1010.79 574.773C1007.36 567.591 1005.65 559.152 1005.65 549.455C1005.65 539.758 1007.36 531.333 1010.79 524.182C1014.24 517 1019 511.455 1025.06 507.545C1031.12 503.606 1038.06 501.636 1045.88 501.636C1053.73 501.636 1060.66 503.606 1066.69 507.545C1072.76 511.455 1077.51 517 1080.97 524.182C1084.42 531.333 1086.15 539.758 1086.15 549.455ZM1077.88 549.455C1077.88 541.121 1076.48 533.985 1073.69 528.045C1070.91 522.076 1067.1 517.515 1062.29 514.364C1057.47 511.212 1052 509.636 1045.88 509.636C1039.79 509.636 1034.33 511.212 1029.51 514.364C1024.69 517.515 1020.88 522.061 1018.06 528C1015.27 533.939 1013.88 541.091 1013.88 549.455C1013.88 557.788 1015.27 564.924 1018.06 570.864C1020.85 576.803 1024.65 581.364 1029.47 584.545C1034.29 587.697 1039.76 589.273 1045.88 589.273C1052 589.273 1057.47 587.697 1062.29 584.545C1067.13 581.394 1070.95 576.848 1073.74 570.909C1076.53 564.939 1077.91 557.788 1077.88 549.455ZM1180.49 502.909V596H1172.21L1117.21 518.045H1116.49V596H1107.99V502.909H1116.21L1171.4 580.955H1172.12V502.909H1180.49ZM1238.16 510.545V502.909H1305.66V510.545H1276.16V596H1267.66V510.545H1238.16ZM1326.08 596V502.909H1356.12C1362.73 502.909 1368.24 504.106 1372.67 506.5C1377.12 508.864 1380.47 512.152 1382.71 516.364C1384.99 520.545 1386.12 525.348 1386.12 530.773C1386.12 536.197 1384.99 540.985 1382.71 545.136C1380.47 549.288 1377.14 552.53 1372.71 554.864C1368.29 557.197 1362.8 558.364 1356.26 558.364H1330.67V550.591H1356.03C1360.88 550.591 1364.91 549.788 1368.12 548.182C1371.36 546.576 1373.77 544.288 1375.35 541.318C1376.95 538.348 1377.76 534.833 1377.76 530.773C1377.76 526.712 1376.95 523.167 1375.35 520.136C1373.74 517.076 1371.32 514.712 1368.08 513.045C1364.86 511.379 1360.8 510.545 1355.89 510.545H1334.58V596H1326.08ZM1367.12 554L1390.03 596H1380.21L1357.53 554H1367.12ZM1408.24 596H1399.33L1433.2 502.909H1442.29L1476.15 596H1467.24L1438.06 513.955H1437.42L1408.24 596ZM1414.65 560.318H1460.83V567.955H1414.65V560.318ZM1561.92 532H1553.37C1552.74 528.818 1551.59 525.879 1549.92 523.182C1548.28 520.455 1546.22 518.076 1543.74 516.045C1541.25 514.015 1538.44 512.439 1535.28 511.318C1532.13 510.197 1528.72 509.636 1525.06 509.636C1519.18 509.636 1513.81 511.167 1508.97 514.227C1504.15 517.288 1500.28 521.788 1497.37 527.727C1494.5 533.636 1493.06 540.879 1493.06 549.455C1493.06 558.091 1494.5 565.364 1497.37 571.273C1500.28 577.182 1504.15 581.667 1508.97 584.727C1513.81 587.758 1519.18 589.273 1525.06 589.273C1528.72 589.273 1532.13 588.712 1535.28 587.591C1538.44 586.47 1541.25 584.909 1543.74 582.909C1546.22 580.879 1548.28 578.5 1549.92 575.773C1551.59 573.045 1552.74 570.091 1553.37 566.909H1561.92C1561.16 571.182 1559.74 575.167 1557.65 578.864C1555.59 582.53 1552.95 585.742 1549.74 588.5C1546.56 591.258 1542.89 593.409 1538.74 594.955C1534.59 596.5 1530.03 597.273 1525.06 597.273C1517.24 597.273 1510.3 595.318 1504.24 591.409C1498.18 587.47 1493.42 581.924 1489.97 574.773C1486.54 567.621 1484.83 559.182 1484.83 549.455C1484.83 539.727 1486.54 531.288 1489.97 524.136C1493.42 516.985 1498.18 511.455 1504.24 507.545C1510.3 503.606 1517.24 501.636 1525.06 501.636C1530.03 501.636 1534.59 502.409 1538.74 503.955C1542.89 505.47 1546.56 507.621 1549.74 510.409C1552.95 513.167 1555.59 516.379 1557.65 520.045C1559.74 523.712 1561.16 527.697 1561.92 532ZM1583.17 596V502.909H1591.67V553.045H1592.48L1637.94 502.909H1649.12L1609.35 545.955L1648.94 596H1638.58L1604.08 551.864L1591.67 565.773V596H1583.17ZM1703.86 596H1694.95L1728.82 502.909H1737.91L1771.77 596H1762.86L1733.68 513.955H1733.04L1703.86 596ZM1710.27 560.318H1756.45V567.955H1710.27V560.318ZM1861.51 502.909V596H1853.23L1798.23 518.045H1797.51V596H1789.01V502.909H1797.23L1852.42 580.955H1853.14V502.909H1861.51ZM1878.81 502.909H1888.63L1916.22 547.091H1917.04L1944.63 502.909H1954.45L1920.85 555.682V596H1912.4V555.682L1878.81 502.909ZM31.8616 683.182C31.3465 678 29.0586 673.879 24.998 670.818C20.9374 667.758 15.8313 666.227 9.67979 666.227C5.34645 666.227 1.52827 666.97 -1.77476 668.455C-5.04748 669.939 -7.62324 672 -9.50203 674.636C-11.3505 677.242 -12.2748 680.212 -12.2748 683.545C-12.2748 686 -11.7445 688.152 -10.6838 690C-9.62324 691.848 -8.199 693.439 -6.41112 694.773C-4.59294 696.076 -2.59294 697.197 -0.411121 698.136C1.801 699.076 4.02827 699.864 6.2707 700.5L16.0889 703.318C19.0586 704.136 22.0283 705.182 24.998 706.455C27.9677 707.727 30.6798 709.333 33.1343 711.273C35.6192 713.182 37.604 715.53 39.0889 718.318C40.604 721.076 41.3616 724.394 41.3616 728.273C41.3616 733.242 40.0737 737.712 37.498 741.682C34.9222 745.652 31.2252 748.803 26.4071 751.136C21.5889 753.439 15.8162 754.591 9.08888 754.591C2.75555 754.591 -2.74445 753.545 -7.41112 751.455C-12.0778 749.333 -15.7445 746.409 -18.4111 742.682C-21.0778 738.955 -22.5778 734.636 -22.9111 729.727H-14.1838C-13.8808 733.394 -12.6687 736.5 -10.5475 739.045C-8.42627 741.591 -5.6687 743.53 -2.27476 744.864C1.11918 746.167 4.90706 746.818 9.08888 746.818C13.7252 746.818 17.8465 746.045 21.4525 744.5C25.0889 742.924 27.9374 740.742 29.998 737.955C32.0889 735.136 33.1343 731.864 33.1343 728.136C33.1343 724.985 32.3162 722.348 30.6798 720.227C29.0434 718.076 26.7555 716.273 23.8162 714.818C20.9071 713.364 17.5283 712.076 13.6798 710.955L2.54343 707.682C-4.75961 705.5 -10.4263 702.485 -14.4566 698.636C-18.4869 694.788 -20.502 689.879 -20.502 683.909C-20.502 678.909 -19.1687 674.515 -16.502 670.727C-13.8051 666.909 -10.1687 663.939 -5.59294 661.818C-0.986879 659.667 4.17979 658.591 9.90706 658.591C15.6949 658.591 20.8162 659.652 25.2707 661.773C29.7252 663.894 33.2555 666.818 35.8616 670.545C38.498 674.242 39.9071 678.455 40.0889 683.182H31.8616ZM79.278 753L53.778 659.909H62.4143L83.5052 739.955H84.2325L105.323 659.909H115.142L136.233 739.955H136.96L158.051 659.909H166.733L141.233 753H132.142L110.551 674.045H109.96L88.3689 753H79.278ZM191.876 659.909V753H183.376V659.909H191.876ZM212.27 667.545V659.909H279.77V667.545H250.27V753H241.77V667.545H212.27ZM296.504 753V746.591L348.186 667.545H296.232V659.909H358.323V666.318L306.595 745.364H358.777V753H296.504ZM380.591 753V659.909H434.591V667.545H389.091V702.591H431.728V710.227H389.091V745.364H435.5V753H380.591ZM457.871 753V659.909H487.917C494.523 659.909 500.038 661.106 504.462 663.5C508.917 665.864 512.265 669.152 514.508 673.364C516.78 677.545 517.917 682.348 517.917 687.773C517.917 693.197 516.78 697.985 514.508 702.136C512.265 706.288 508.932 709.53 504.508 711.864C500.083 714.197 494.598 715.364 488.053 715.364H462.462V707.591H487.826C492.674 707.591 496.704 706.788 499.917 705.182C503.159 703.576 505.568 701.288 507.144 698.318C508.75 695.348 509.553 691.833 509.553 687.773C509.553 683.712 508.75 680.167 507.144 677.136C505.538 674.076 503.114 671.712 499.871 670.045C496.659 668.379 492.598 667.545 487.689 667.545H466.371V753H457.871ZM498.917 711L521.826 753H512.008L489.326 711H498.917ZM539.901 753V659.909H548.401V745.364H592.765V753H539.901ZM619.193 753H610.283L644.147 659.909H653.238L687.102 753H678.193L649.011 670.955H648.374L619.193 753ZM625.602 717.318H671.783V724.955H625.602V717.318ZM776.836 659.909V753H768.563L713.563 675.045H712.836V753H704.336V659.909H712.563L767.745 737.955H768.473V659.909H776.836ZM830.139 753H802.866V659.909H831.775C840.654 659.909 848.245 661.758 854.548 665.455C860.881 669.152 865.73 674.455 869.093 681.364C872.457 688.273 874.139 696.561 874.139 706.227C874.139 715.985 872.412 724.364 868.957 731.364C865.533 738.333 860.533 743.682 853.957 747.409C847.412 751.136 839.472 753 830.139 753ZM811.366 745.364H829.639C837.639 745.364 844.336 743.788 849.73 740.636C855.124 737.485 859.169 732.985 861.866 727.136C864.563 721.288 865.912 714.318 865.912 706.227C865.881 698.197 864.548 691.288 861.912 685.5C859.306 679.712 855.427 675.273 850.275 672.182C845.154 669.091 838.821 667.545 831.275 667.545H811.366V745.364ZM983.847 683.182C983.331 678 981.044 673.879 976.983 670.818C972.922 667.758 967.816 666.227 961.665 666.227C957.331 666.227 953.513 666.97 950.21 668.455C946.938 669.939 944.362 672 942.483 674.636C940.634 677.242 939.71 680.212 939.71 683.545C939.71 686 940.241 688.152 941.301 690C942.362 691.848 943.786 693.439 945.574 694.773C947.392 696.076 949.392 697.197 951.574 698.136C953.786 699.076 956.013 699.864 958.256 700.5L968.074 703.318C971.044 704.136 974.013 705.182 976.983 706.455C979.953 707.727 982.665 709.333 985.119 711.273C987.604 713.182 989.589 715.53 991.074 718.318C992.589 721.076 993.347 724.394 993.347 728.273C993.347 733.242 992.059 737.712 989.483 741.682C986.907 745.652 983.21 748.803 978.392 751.136C973.574 753.439 967.801 754.591 961.074 754.591C954.741 754.591 949.241 753.545 944.574 751.455C939.907 749.333 936.241 746.409 933.574 742.682C930.907 738.955 929.407 734.636 929.074 729.727H937.801C938.104 733.394 939.316 736.5 941.438 739.045C943.559 741.591 946.316 743.53 949.71 744.864C953.104 746.167 956.892 746.818 961.074 746.818C965.71 746.818 969.831 746.045 973.438 744.5C977.074 742.924 979.922 740.742 981.983 737.955C984.074 735.136 985.119 731.864 985.119 728.136C985.119 724.985 984.301 722.348 982.665 720.227C981.028 718.076 978.741 716.273 975.801 714.818C972.892 713.364 969.513 712.076 965.665 710.955L954.528 707.682C947.225 705.5 941.559 702.485 937.528 698.636C933.498 694.788 931.483 689.879 931.483 683.909C931.483 678.909 932.816 674.515 935.483 670.727C938.18 666.909 941.816 663.939 946.392 661.818C950.998 659.667 956.165 658.591 961.892 658.591C967.68 658.591 972.801 659.652 977.256 661.773C981.71 663.894 985.241 666.818 987.847 670.545C990.483 674.242 991.892 678.455 992.074 683.182H983.847ZM1031.26 753L1005.76 659.909H1014.4L1035.49 739.955H1036.22L1057.31 659.909H1067.13L1088.22 739.955H1088.94L1110.04 659.909H1118.72L1093.22 753H1084.13L1062.54 674.045H1061.94L1040.35 753H1031.26ZM1143.86 659.909V753H1135.36V659.909H1143.86ZM1220.44 683.182C1219.92 678 1217.63 673.879 1213.57 670.818C1209.51 667.758 1204.41 666.227 1198.25 666.227C1193.92 666.227 1190.1 666.97 1186.8 668.455C1183.53 669.939 1180.95 672 1179.07 674.636C1177.22 677.242 1176.3 680.212 1176.3 683.545C1176.3 686 1176.83 688.152 1177.89 690C1178.95 691.848 1180.38 693.439 1182.16 694.773C1183.98 696.076 1185.98 697.197 1188.16 698.136C1190.38 699.076 1192.6 699.864 1194.85 700.5L1204.66 703.318C1207.63 704.136 1210.6 705.182 1213.57 706.455C1216.54 707.727 1219.25 709.333 1221.71 711.273C1224.19 713.182 1226.18 715.53 1227.66 718.318C1229.18 721.076 1229.94 724.394 1229.94 728.273C1229.94 733.242 1228.65 737.712 1226.07 741.682C1223.5 745.652 1219.8 748.803 1214.98 751.136C1210.16 753.439 1204.39 754.591 1197.66 754.591C1191.33 754.591 1185.83 753.545 1181.16 751.455C1176.5 749.333 1172.83 746.409 1170.16 742.682C1167.5 738.955 1166 734.636 1165.66 729.727H1174.39C1174.69 733.394 1175.91 736.5 1178.03 739.045C1180.15 741.591 1182.91 743.53 1186.3 744.864C1189.69 746.167 1193.48 746.818 1197.66 746.818C1202.3 746.818 1206.42 746.045 1210.03 744.5C1213.66 742.924 1216.51 740.742 1218.57 737.955C1220.66 735.136 1221.71 731.864 1221.71 728.136C1221.71 724.985 1220.89 722.348 1219.25 720.227C1217.62 718.076 1215.33 716.273 1212.39 714.818C1209.48 713.364 1206.1 712.076 1202.25 710.955L1191.12 707.682C1183.82 705.5 1178.15 702.485 1174.12 698.636C1170.09 694.788 1168.07 689.879 1168.07 683.909C1168.07 678.909 1169.41 674.515 1172.07 670.727C1174.77 666.909 1178.41 663.939 1182.98 661.818C1187.59 659.667 1192.75 658.591 1198.48 658.591C1204.27 658.591 1209.39 659.652 1213.85 661.773C1218.3 663.894 1221.83 666.818 1224.44 670.545C1227.07 674.242 1228.48 678.455 1228.66 683.182H1220.44ZM1302.22 683.182C1301.7 678 1299.41 673.879 1295.35 670.818C1291.29 667.758 1286.19 666.227 1280.03 666.227C1275.7 666.227 1271.88 666.97 1268.58 668.455C1265.31 669.939 1262.73 672 1260.85 674.636C1259 677.242 1258.08 680.212 1258.08 683.545C1258.08 686 1258.61 688.152 1259.67 690C1260.73 691.848 1262.16 693.439 1263.94 694.773C1265.76 696.076 1267.76 697.197 1269.94 698.136C1272.16 699.076 1274.38 699.864 1276.63 700.5L1286.44 703.318C1289.41 704.136 1292.38 705.182 1295.35 706.455C1298.32 707.727 1301.03 709.333 1303.49 711.273C1305.97 713.182 1307.96 715.53 1309.44 718.318C1310.96 721.076 1311.72 724.394 1311.72 728.273C1311.72 733.242 1310.43 737.712 1307.85 741.682C1305.28 745.652 1301.58 748.803 1296.76 751.136C1291.94 753.439 1286.17 754.591 1279.44 754.591C1273.11 754.591 1267.61 753.545 1262.94 751.455C1258.28 749.333 1254.61 746.409 1251.94 742.682C1249.28 738.955 1247.78 734.636 1247.44 729.727H1256.17C1256.47 733.394 1257.69 736.5 1259.81 739.045C1261.93 741.591 1264.69 743.53 1268.08 744.864C1271.47 746.167 1275.26 746.818 1279.44 746.818C1284.08 746.818 1288.2 746.045 1291.81 744.5C1295.44 742.924 1298.29 740.742 1300.35 737.955C1302.44 735.136 1303.49 731.864 1303.49 728.136C1303.49 724.985 1302.67 722.348 1301.03 720.227C1299.4 718.076 1297.11 716.273 1294.17 714.818C1291.26 713.364 1287.88 712.076 1284.03 710.955L1272.9 707.682C1265.6 705.5 1259.93 702.485 1255.9 698.636C1251.87 694.788 1249.85 689.879 1249.85 683.909C1249.85 678.909 1251.19 674.515 1253.85 670.727C1256.55 666.909 1260.19 663.939 1264.76 661.818C1269.37 659.667 1274.53 658.591 1280.26 658.591C1286.05 658.591 1291.17 659.652 1295.63 661.773C1300.08 663.894 1303.61 666.818 1306.22 670.545C1308.85 674.242 1310.26 678.455 1310.44 683.182H1302.22ZM1443.23 659.909V753H1434.96L1379.96 675.045H1379.23V753H1370.73V659.909H1378.96L1434.14 737.955H1434.87V659.909H1443.23ZM1545.58 706.455C1545.58 716.152 1543.85 724.591 1540.4 731.773C1536.94 738.924 1532.19 744.47 1526.12 748.409C1520.09 752.318 1513.16 754.273 1505.31 754.273C1497.46 754.273 1490.5 752.318 1484.44 748.409C1478.41 744.47 1473.67 738.924 1470.22 731.773C1466.79 724.591 1465.08 716.152 1465.08 706.455C1465.08 696.758 1466.79 688.333 1470.22 681.182C1473.67 674 1478.43 668.455 1484.49 664.545C1490.55 660.606 1497.49 658.636 1505.31 658.636C1513.16 658.636 1520.09 660.606 1526.12 664.545C1532.19 668.455 1536.94 674 1540.4 681.182C1543.85 688.333 1545.58 696.758 1545.58 706.455ZM1537.31 706.455C1537.31 698.121 1535.91 690.985 1533.12 685.045C1530.34 679.076 1526.53 674.515 1521.72 671.364C1516.9 668.212 1511.43 666.636 1505.31 666.636C1499.22 666.636 1493.76 668.212 1488.94 671.364C1484.12 674.515 1480.31 679.061 1477.49 685C1474.7 690.939 1473.31 698.091 1473.31 706.455C1473.31 714.788 1474.7 721.924 1477.49 727.864C1480.28 733.803 1484.08 738.364 1488.9 741.545C1493.72 744.697 1499.19 746.273 1505.31 746.273C1511.43 746.273 1516.9 744.697 1521.72 741.545C1526.56 738.394 1530.38 733.848 1533.17 727.909C1535.96 721.939 1537.34 714.788 1537.31 706.455ZM1567.42 753V659.909H1597.46C1604.07 659.909 1609.58 661.106 1614.01 663.5C1618.46 665.864 1621.81 669.152 1624.05 673.364C1626.33 677.545 1627.46 682.348 1627.46 687.773C1627.46 693.197 1626.33 697.985 1624.05 702.136C1621.81 706.288 1618.48 709.53 1614.05 711.864C1609.63 714.197 1604.14 715.364 1597.6 715.364H1572.01V707.591H1597.37C1602.22 707.591 1606.25 706.788 1609.46 705.182C1612.7 703.576 1615.11 701.288 1616.69 698.318C1618.29 695.348 1619.1 691.833 1619.1 687.773C1619.1 683.712 1618.29 680.167 1616.69 677.136C1615.08 674.076 1612.66 671.712 1609.42 670.045C1606.2 668.379 1602.14 667.545 1597.23 667.545H1575.92V753H1567.42ZM1608.46 711L1631.37 753H1621.55L1598.87 711H1608.46ZM1665.63 753L1640.13 659.909H1648.76L1669.86 739.955H1670.58L1691.67 659.909H1701.49L1722.58 739.955H1723.31L1744.4 659.909H1753.08L1727.58 753H1718.49L1696.9 674.045H1696.31L1674.72 753H1665.63ZM1762.61 753H1753.7L1787.57 659.909H1796.66L1830.52 753H1821.61L1792.43 670.955H1791.79L1762.61 753ZM1769.02 717.318H1815.2V724.955H1769.02V717.318ZM1829.53 659.909H1839.35L1866.94 704.091H1867.76L1895.35 659.909H1905.17L1871.57 712.682V753H1863.12V712.682L1829.53 659.909ZM-74.7289 910V816.909H-20.8653V824.545H-66.2289V859.591H-25.0925V867.227H-66.2289V910H-74.7289ZM65.9602 846C65.1117 842.909 63.8693 840.015 62.2329 837.318C60.5966 834.591 58.5663 832.212 56.142 830.182C53.7481 828.121 50.9754 826.515 47.8238 825.364C44.7026 824.212 41.2178 823.636 37.3693 823.636C31.3087 823.636 25.8844 825.212 21.0966 828.364C16.3087 831.515 12.5208 836.061 9.73293 842C6.97535 847.939 5.59656 855.091 5.59656 863.455C5.59656 871.788 6.9905 878.924 9.77838 884.864C12.5663 890.803 16.3844 895.364 21.2329 898.545C26.1117 901.697 31.6875 903.273 37.9602 903.273C43.6875 903.273 48.7481 902 53.142 899.455C57.536 896.909 60.9602 893.273 63.4147 888.545C65.8996 883.818 67.1117 878.197 67.0511 871.682L69.7784 872.545H39.9602V864.909H75.3238V872.545C75.3238 880.485 73.7178 887.348 70.5057 893.136C67.2935 898.924 62.8844 903.394 57.2784 906.545C51.6723 909.697 45.2329 911.273 37.9602 911.273C29.839 911.273 22.7329 909.318 16.642 905.409C10.5511 901.47 5.80868 895.924 2.41474 888.773C-0.948894 881.591 -2.63071 873.152 -2.63071 863.455C-2.63071 856.152 -1.66102 849.561 0.278378 843.682C2.21777 837.803 4.9602 832.773 8.50565 828.591C12.0814 824.409 16.3087 821.212 21.1875 819C26.0663 816.758 31.4602 815.636 37.3693 815.636C42.4602 815.636 47.1117 816.439 51.3238 818.045C55.5663 819.652 59.2935 821.864 62.5057 824.682C65.7481 827.47 68.3996 830.697 70.4602 834.364C72.5511 838 73.9602 841.879 74.6875 846H65.9602ZM97.7061 910V816.909H151.57V824.545H106.206V859.591H147.342V867.227H106.206V910H97.7061ZM238.395 846C237.547 842.909 236.304 840.015 234.668 837.318C233.032 834.591 231.001 832.212 228.577 830.182C226.183 828.121 223.41 826.515 220.259 825.364C217.138 824.212 213.653 823.636 209.804 823.636C203.744 823.636 198.319 825.212 193.532 828.364C188.744 831.515 184.956 836.061 182.168 842C179.41 847.939 178.032 855.091 178.032 863.455C178.032 871.788 179.425 878.924 182.213 884.864C185.001 890.803 188.819 895.364 193.668 898.545C198.547 901.697 204.122 903.273 210.395 903.273C216.122 903.273 221.183 902 225.577 899.455C229.971 896.909 233.395 893.273 235.85 888.545C238.335 883.818 239.547 878.197 239.486 871.682L242.213 872.545H212.395V864.909H247.759V872.545C247.759 880.485 246.153 887.348 242.941 893.136C239.729 898.924 235.319 903.394 229.713 906.545C224.107 909.697 217.668 911.273 210.395 911.273C202.274 911.273 195.168 909.318 189.077 905.409C182.986 901.47 178.244 895.924 174.85 888.773C171.486 881.591 169.804 873.152 169.804 863.455C169.804 856.152 170.774 849.561 172.713 843.682C174.653 837.803 177.395 832.773 180.941 828.591C184.516 824.409 188.744 821.212 193.622 819C198.501 816.758 203.895 815.636 209.804 815.636C214.895 815.636 219.547 816.439 223.759 818.045C228.001 819.652 231.729 821.864 234.941 824.682C238.183 827.47 240.835 830.697 242.895 834.364C244.986 838 246.395 841.879 247.122 846H238.395ZM383.739 863.455C383.739 873.152 382.012 881.591 378.557 888.773C375.103 895.924 370.345 901.47 364.285 905.409C358.254 909.318 351.315 911.273 343.467 911.273C335.618 911.273 328.664 909.318 322.603 905.409C316.573 901.47 311.83 895.924 308.376 888.773C304.951 881.591 303.239 873.152 303.239 863.455C303.239 853.758 304.951 845.333 308.376 838.182C311.83 831 316.588 825.455 322.648 821.545C328.709 817.606 335.648 815.636 343.467 815.636C351.315 815.636 358.254 817.606 364.285 821.545C370.345 825.455 375.103 831 378.557 838.182C382.012 845.333 383.739 853.758 383.739 863.455ZM375.467 863.455C375.467 855.121 374.073 847.985 371.285 842.045C368.497 836.076 364.694 831.515 359.876 828.364C355.057 825.212 349.588 823.636 343.467 823.636C337.376 823.636 331.921 825.212 327.103 828.364C322.285 831.515 318.467 836.061 315.648 842C312.86 847.939 311.467 855.091 311.467 863.455C311.467 871.788 312.86 878.924 315.648 884.864C318.436 890.803 322.239 895.364 327.057 898.545C331.876 901.697 337.345 903.273 343.467 903.273C349.588 903.273 355.057 901.697 359.876 898.545C364.724 895.394 368.542 890.848 371.33 884.909C374.118 878.939 375.497 871.788 375.467 863.455ZM456.122 840.182C455.606 835 453.319 830.879 449.258 827.818C445.197 824.758 440.091 823.227 433.94 823.227C429.606 823.227 425.788 823.97 422.485 825.455C419.212 826.939 416.637 829 414.758 831.636C412.909 834.242 411.985 837.212 411.985 840.545C411.985 843 412.515 845.152 413.576 847C414.637 848.848 416.061 850.439 417.849 851.773C419.667 853.076 421.667 854.197 423.849 855.136C426.061 856.076 428.288 856.864 430.531 857.5L440.349 860.318C443.319 861.136 446.288 862.182 449.258 863.455C452.228 864.727 454.94 866.333 457.394 868.273C459.879 870.182 461.864 872.53 463.349 875.318C464.864 878.076 465.622 881.394 465.622 885.273C465.622 890.242 464.334 894.712 461.758 898.682C459.182 902.652 455.485 905.803 450.667 908.136C445.849 910.439 440.076 911.591 433.349 911.591C427.015 911.591 421.515 910.545 416.849 908.455C412.182 906.333 408.515 903.409 405.849 899.682C403.182 895.955 401.682 891.636 401.349 886.727H410.076C410.379 890.394 411.591 893.5 413.712 896.045C415.834 898.591 418.591 900.53 421.985 901.864C425.379 903.167 429.167 903.818 433.349 903.818C437.985 903.818 442.106 903.045 445.712 901.5C449.349 899.924 452.197 897.742 454.258 894.955C456.349 892.136 457.394 888.864 457.394 885.136C457.394 881.985 456.576 879.348 454.94 877.227C453.303 875.076 451.015 873.273 448.076 871.818C445.167 870.364 441.788 869.076 437.94 867.955L426.803 864.682C419.5 862.5 413.834 859.485 409.803 855.636C405.773 851.788 403.758 846.879 403.758 840.909C403.758 835.909 405.091 831.515 407.758 827.727C410.455 823.909 414.091 820.939 418.667 818.818C423.273 816.667 428.44 815.591 434.167 815.591C439.955 815.591 445.076 816.652 449.531 818.773C453.985 820.894 457.515 823.818 460.122 827.545C462.758 831.242 464.167 835.455 464.349 840.182H456.122ZM487.356 910V816.909H495.856V902.364H540.22V910H487.356ZM633.329 863.455C633.329 873.152 631.602 881.591 628.147 888.773C624.693 895.924 619.935 901.47 613.875 905.409C607.844 909.318 600.905 911.273 593.057 911.273C585.208 911.273 578.254 909.318 572.193 905.409C566.163 901.47 561.42 895.924 557.966 888.773C554.541 881.591 552.829 873.152 552.829 863.455C552.829 853.758 554.541 845.333 557.966 838.182C561.42 831 566.178 825.455 572.238 821.545C578.299 817.606 585.238 815.636 593.057 815.636C600.905 815.636 607.844 817.606 613.875 821.545C619.935 825.455 624.693 831 628.147 838.182C631.602 845.333 633.329 853.758 633.329 863.455ZM625.057 863.455C625.057 855.121 623.663 847.985 620.875 842.045C618.087 836.076 614.284 831.515 609.466 828.364C604.647 825.212 599.178 823.636 593.057 823.636C586.966 823.636 581.511 825.212 576.693 828.364C571.875 831.515 568.057 836.061 565.238 842C562.45 847.939 561.057 855.091 561.057 863.455C561.057 871.788 562.45 878.924 565.238 884.864C568.026 890.803 571.829 895.364 576.647 898.545C581.466 901.697 586.935 903.273 593.057 903.273C599.178 903.273 604.647 901.697 609.466 898.545C614.314 895.394 618.132 890.848 620.92 884.909C623.708 878.939 625.087 871.788 625.057 863.455ZM727.719 816.909H736.219V884.045C736.189 890.106 735.098 895.167 732.946 899.227C730.795 903.258 727.825 906.273 724.037 908.273C720.249 910.273 715.901 911.273 710.992 911.273C706.173 911.273 701.87 910.379 698.082 908.591C694.295 906.803 691.31 904.288 689.128 901.045C686.976 897.803 685.901 894 685.901 889.636H694.264C694.264 892.394 694.992 894.833 696.446 896.955C697.901 899.045 699.885 900.682 702.401 901.864C704.946 903.045 707.81 903.636 710.992 903.636C714.295 903.636 717.189 902.939 719.673 901.545C722.189 900.152 724.158 898.015 725.582 895.136C727.007 892.227 727.719 888.53 727.719 884.045V816.909ZM762.362 910H753.453L787.317 816.909H796.408L830.272 910H821.362L792.181 827.955H791.544L762.362 910ZM768.772 874.318H814.953V881.955H768.772V874.318ZM847.506 910V816.909H877.552C884.158 816.909 889.673 818.182 894.097 820.727C898.552 823.242 901.9 826.667 904.142 831C906.415 835.333 907.552 840.212 907.552 845.636C907.552 851.061 906.43 855.955 904.188 860.318C901.945 864.652 898.612 868.091 894.188 870.636C889.764 873.152 884.264 874.409 877.688 874.409H854.052V866.773H877.461C882.339 866.773 886.385 865.864 889.597 864.045C892.809 862.197 895.203 859.682 896.779 856.5C898.385 853.318 899.188 849.697 899.188 845.636C899.188 841.576 898.385 837.955 896.779 834.773C895.203 831.591 892.794 829.091 889.552 827.273C886.339 825.455 882.264 824.545 877.324 824.545H856.006V910H847.506ZM919.422 910H910.513L944.377 816.909H953.468L987.332 910H978.422L949.241 827.955H948.604L919.422 910ZM925.832 874.318H972.013V881.955H925.832V874.318ZM1077.07 816.909V910H1068.79L1013.79 832.045H1013.07V910H1004.57V816.909H1012.79L1067.98 894.955H1068.7V816.909H1077.07ZM1134.74 824.545V816.909H1202.24V824.545H1172.74V910H1164.24V824.545H1134.74ZM1295.1 863.455C1295.1 873.152 1293.37 881.591 1289.92 888.773C1286.46 895.924 1281.71 901.47 1275.64 905.409C1269.61 909.318 1262.68 911.273 1254.83 911.273C1246.98 911.273 1240.02 909.318 1233.96 905.409C1227.93 901.47 1223.19 895.924 1219.74 888.773C1216.31 881.591 1214.6 873.152 1214.6 863.455C1214.6 853.758 1216.31 845.333 1219.74 838.182C1223.19 831 1227.95 825.455 1234.01 821.545C1240.07 817.606 1247.01 815.636 1254.83 815.636C1262.68 815.636 1269.61 817.606 1275.64 821.545C1281.71 825.455 1286.46 831 1289.92 838.182C1293.37 845.333 1295.1 853.758 1295.1 863.455ZM1286.83 863.455C1286.83 855.121 1285.43 847.985 1282.64 842.045C1279.86 836.076 1276.05 831.515 1271.24 828.364C1266.42 825.212 1260.95 823.636 1254.83 823.636C1248.74 823.636 1243.28 825.212 1238.46 828.364C1233.64 831.515 1229.83 836.061 1227.01 842C1224.22 847.939 1222.83 855.091 1222.83 863.455C1222.83 871.788 1224.22 878.924 1227.01 884.864C1229.8 890.803 1233.6 895.364 1238.42 898.545C1243.24 901.697 1248.71 903.273 1254.83 903.273C1260.95 903.273 1266.42 901.697 1271.24 898.545C1276.08 895.394 1279.9 890.848 1282.69 884.909C1285.48 878.939 1286.86 871.788 1286.83 863.455ZM1316.94 910V816.909H1325.44V867.045H1326.25L1371.71 816.909H1382.89L1343.12 859.955L1382.71 910H1372.35L1337.85 865.864L1325.44 879.773V910H1316.94ZM1408.72 816.909V910H1400.22V816.909H1408.72ZM1511.06 863.455C1511.06 873.152 1509.34 881.591 1505.88 888.773C1502.43 895.924 1497.67 901.47 1491.61 905.409C1485.58 909.318 1478.64 911.273 1470.79 911.273C1462.94 911.273 1455.99 909.318 1449.93 905.409C1443.9 901.47 1439.16 895.924 1435.7 888.773C1432.28 881.591 1430.56 873.152 1430.56 863.455C1430.56 853.758 1432.28 845.333 1435.7 838.182C1439.16 831 1443.91 825.455 1449.97 821.545C1456.03 817.606 1462.97 815.636 1470.79 815.636C1478.64 815.636 1485.58 817.606 1491.61 821.545C1497.67 825.455 1502.43 831 1505.88 838.182C1509.34 845.333 1511.06 853.758 1511.06 863.455ZM1502.79 863.455C1502.79 855.121 1501.4 847.985 1498.61 842.045C1495.82 836.076 1492.02 831.515 1487.2 828.364C1482.38 825.212 1476.91 823.636 1470.79 823.636C1464.7 823.636 1459.25 825.212 1454.43 828.364C1449.61 831.515 1445.79 836.061 1442.97 842C1440.19 847.939 1438.79 855.091 1438.79 863.455C1438.79 871.788 1440.19 878.924 1442.97 884.864C1445.76 890.803 1449.56 895.364 1454.38 898.545C1459.2 901.697 1464.67 903.273 1470.79 903.273C1476.91 903.273 1482.38 901.697 1487.2 898.545C1492.05 895.394 1495.87 890.848 1498.66 884.909C1501.44 878.939 1502.82 871.788 1502.79 863.455ZM1643.09 846H1634.54C1633.91 842.818 1632.76 839.879 1631.09 837.182C1629.45 834.455 1627.39 832.076 1624.91 830.045C1622.42 828.015 1619.61 826.439 1616.45 825.318C1613.3 824.197 1609.89 823.636 1606.23 823.636C1600.35 823.636 1594.98 825.167 1590.14 828.227C1585.32 831.288 1581.45 835.788 1578.54 841.727C1575.67 847.636 1574.23 854.879 1574.23 863.455C1574.23 872.091 1575.67 879.364 1578.54 885.273C1581.45 891.182 1585.32 895.667 1590.14 898.727C1594.98 901.758 1600.35 903.273 1606.23 903.273C1609.89 903.273 1613.3 902.712 1616.45 901.591C1619.61 900.47 1622.42 898.909 1624.91 896.909C1627.39 894.879 1629.45 892.5 1631.09 889.773C1632.76 887.045 1633.91 884.091 1634.54 880.909H1643.09C1642.33 885.182 1640.91 889.167 1638.82 892.864C1636.76 896.53 1634.12 899.742 1630.91 902.5C1627.73 905.258 1624.06 907.409 1619.91 908.955C1615.76 910.5 1611.2 911.273 1606.23 911.273C1598.41 911.273 1591.47 909.318 1585.41 905.409C1579.35 901.47 1574.59 895.924 1571.14 888.773C1567.71 881.621 1566 873.182 1566 863.455C1566 853.727 1567.71 845.288 1571.14 838.136C1574.59 830.985 1579.35 825.455 1585.41 821.545C1591.47 817.606 1598.41 815.636 1606.23 815.636C1611.2 815.636 1615.76 816.409 1619.91 817.955C1624.06 819.47 1627.73 821.621 1630.91 824.409C1634.12 827.167 1636.76 830.379 1638.82 834.045C1640.91 837.712 1642.33 841.697 1643.09 846ZM1664.34 910V816.909H1672.84V859.591H1725.65V816.909H1734.15V910H1725.65V867.227H1672.84V910H1664.34ZM1768.62 816.909V910H1760.12V816.909H1768.62ZM1867.15 816.909V910H1858.87L1803.87 832.045H1803.15V910H1794.65V816.909H1802.87L1858.06 894.955H1858.78V816.909H1867.15ZM1893.31 910H1884.4L1918.27 816.909H1927.36L1961.22 910H1952.31L1923.13 827.955H1922.49L1893.31 910ZM1899.72 874.318H1945.9V881.955H1899.72V874.318ZM-109.369 1067V973.909H-55.5053V981.545H-100.869V1016.59H-59.7325V1024.23H-100.869V1067H-109.369ZM-33.0889 1067V973.909H-3.04345C3.56261 973.909 9.07776 975.106 13.502 977.5C17.9565 979.864 21.305 983.152 23.5475 987.364C25.8202 991.545 26.9566 996.348 26.9566 1001.77C26.9566 1007.2 25.8202 1011.98 23.5475 1016.14C21.305 1020.29 17.9717 1023.53 13.5475 1025.86C9.12321 1028.2 3.63837 1029.36 -2.90709 1029.36H-28.498V1021.59H-3.13436C1.71412 1021.59 5.74443 1020.79 8.95655 1019.18C12.199 1017.58 14.6081 1015.29 16.1838 1012.32C17.7899 1009.35 18.5929 1005.83 18.5929 1001.77C18.5929 997.712 17.7899 994.167 16.1838 991.136C14.5778 988.076 12.1535 985.712 8.91109 984.045C5.69897 982.379 1.63837 981.545 -3.27073 981.545H-24.5889V1067H-33.0889ZM7.95655 1025L30.8656 1067H21.0475L-1.63436 1025H7.95655ZM49.0775 1067H40.1684L74.032 973.909H83.1229L116.987 1067H108.077L78.8956 984.955H78.2593L49.0775 1067ZM55.4865 1031.32H101.668V1038.95H55.4865V1031.32ZM206.721 973.909V1067H198.448L143.448 989.045H142.721V1067H134.221V973.909H142.448L197.63 1051.95H198.357V973.909H206.721ZM305.66 1003H297.115C296.478 999.818 295.327 996.879 293.66 994.182C292.024 991.455 289.963 989.076 287.478 987.045C284.994 985.015 282.175 983.439 279.024 982.318C275.872 981.197 272.463 980.636 268.797 980.636C262.918 980.636 257.554 982.167 252.706 985.227C247.887 988.288 244.024 992.788 241.115 998.727C238.236 1004.64 236.797 1011.88 236.797 1020.45C236.797 1029.09 238.236 1036.36 241.115 1042.27C244.024 1048.18 247.887 1052.67 252.706 1055.73C257.554 1058.76 262.918 1060.27 268.797 1060.27C272.463 1060.27 275.872 1059.71 279.024 1058.59C282.175 1057.47 284.994 1055.91 287.478 1053.91C289.963 1051.88 292.024 1049.5 293.66 1046.77C295.327 1044.05 296.478 1041.09 297.115 1037.91H305.66C304.903 1042.18 303.478 1046.17 301.387 1049.86C299.327 1053.53 296.69 1056.74 293.478 1059.5C290.297 1062.26 286.63 1064.41 282.478 1065.95C278.327 1067.5 273.766 1068.27 268.797 1068.27C260.978 1068.27 254.039 1066.32 247.978 1062.41C241.918 1058.47 237.16 1052.92 233.706 1045.77C230.281 1038.62 228.569 1030.18 228.569 1020.45C228.569 1010.73 230.281 1002.29 233.706 995.136C237.16 987.985 241.918 982.455 247.978 978.545C254.039 974.606 260.978 972.636 268.797 972.636C273.766 972.636 278.327 973.409 282.478 974.955C286.63 976.47 290.297 978.621 293.478 981.409C296.69 984.167 299.327 987.379 301.387 991.045C303.478 994.712 304.903 998.697 305.66 1003ZM326.906 1067V973.909H380.906V981.545H335.406V1016.59H378.042V1024.23H335.406V1059.36H381.815V1067H326.906ZM441.466 1067V973.909H471.512C478.118 973.909 483.633 975.182 488.057 977.727C492.512 980.242 495.86 983.667 498.102 988C500.375 992.333 501.512 997.212 501.512 1002.64C501.512 1008.06 500.39 1012.95 498.148 1017.32C495.906 1021.65 492.572 1025.09 488.148 1027.64C483.724 1030.15 478.224 1031.41 471.648 1031.41H448.012V1023.77H471.421C476.299 1023.77 480.345 1022.86 483.557 1021.05C486.769 1019.2 489.163 1016.68 490.739 1013.5C492.345 1010.32 493.148 1006.7 493.148 1002.64C493.148 998.576 492.345 994.955 490.739 991.773C489.163 988.591 486.754 986.091 483.512 984.273C480.299 982.455 476.224 981.545 471.284 981.545H449.966V1067H441.466ZM513.382 1067H504.473L538.337 973.909H547.428L581.292 1067H572.382L543.201 984.955H542.564L513.382 1067ZM519.792 1031.32H565.973V1038.95H519.792V1031.32ZM598.526 1067V973.909H628.572C635.178 973.909 640.693 975.106 645.117 977.5C649.572 979.864 652.92 983.152 655.162 987.364C657.435 991.545 658.572 996.348 658.572 1001.77C658.572 1007.2 657.435 1011.98 655.162 1016.14C652.92 1020.29 649.587 1023.53 645.162 1025.86C640.738 1028.2 635.253 1029.36 628.708 1029.36H603.117V1021.59H628.481C633.329 1021.59 637.359 1020.79 640.572 1019.18C643.814 1017.58 646.223 1015.29 647.799 1012.32C649.405 1009.35 650.208 1005.83 650.208 1001.77C650.208 997.712 649.405 994.167 647.799 991.136C646.193 988.076 643.769 985.712 640.526 984.045C637.314 982.379 633.253 981.545 628.344 981.545H607.026V1067H598.526ZM639.572 1025L662.481 1067H652.662L629.981 1025H639.572ZM689.056 973.909V1067H680.556V973.909H689.056ZM765.632 997.182C765.116 992 762.829 987.879 758.768 984.818C754.707 981.758 749.601 980.227 743.45 980.227C739.116 980.227 735.298 980.97 731.995 982.455C728.722 983.939 726.147 986 724.268 988.636C722.419 991.242 721.495 994.212 721.495 997.545C721.495 1000 722.026 1002.15 723.086 1004C724.147 1005.85 725.571 1007.44 727.359 1008.77C729.177 1010.08 731.177 1011.2 733.359 1012.14C735.571 1013.08 737.798 1013.86 740.041 1014.5L749.859 1017.32C752.829 1018.14 755.798 1019.18 758.768 1020.45C761.738 1021.73 764.45 1023.33 766.904 1025.27C769.389 1027.18 771.374 1029.53 772.859 1032.32C774.374 1035.08 775.132 1038.39 775.132 1042.27C775.132 1047.24 773.844 1051.71 771.268 1055.68C768.692 1059.65 764.995 1062.8 760.177 1065.14C755.359 1067.44 749.586 1068.59 742.859 1068.59C736.526 1068.59 731.026 1067.55 726.359 1065.45C721.692 1063.33 718.026 1060.41 715.359 1056.68C712.692 1052.95 711.192 1048.64 710.859 1043.73H719.586C719.889 1047.39 721.101 1050.5 723.222 1053.05C725.344 1055.59 728.101 1057.53 731.495 1058.86C734.889 1060.17 738.677 1060.82 742.859 1060.82C747.495 1060.82 751.616 1060.05 755.222 1058.5C758.859 1056.92 761.707 1054.74 763.768 1051.95C765.859 1049.14 766.904 1045.86 766.904 1042.14C766.904 1038.98 766.086 1036.35 764.45 1034.23C762.813 1032.08 760.526 1030.27 757.586 1028.82C754.677 1027.36 751.298 1026.08 747.45 1024.95L736.313 1021.68C729.01 1019.5 723.344 1016.48 719.313 1012.64C715.283 1008.79 713.268 1003.88 713.268 997.909C713.268 992.909 714.601 988.515 717.268 984.727C719.965 980.909 723.601 977.939 728.177 975.818C732.783 973.667 737.95 972.591 743.677 972.591C749.465 972.591 754.586 973.652 759.041 975.773C763.495 977.894 767.026 980.818 769.632 984.545C772.268 988.242 773.677 992.455 773.859 997.182H765.632ZM861.419 1067H834.146V973.909H863.055C871.934 973.909 879.525 975.758 885.828 979.455C892.161 983.152 897.01 988.455 900.373 995.364C903.737 1002.27 905.419 1010.56 905.419 1020.23C905.419 1029.98 903.692 1038.36 900.237 1045.36C896.813 1052.33 891.813 1057.68 885.237 1061.41C878.692 1065.14 870.752 1067 861.419 1067ZM842.646 1059.36H860.919C868.919 1059.36 875.616 1057.79 881.01 1054.64C886.404 1051.48 890.449 1046.98 893.146 1041.14C895.843 1035.29 897.192 1028.32 897.192 1020.23C897.161 1012.2 895.828 1005.29 893.192 999.5C890.586 993.712 886.707 989.273 881.555 986.182C876.434 983.091 870.101 981.545 862.555 981.545H842.646V1059.36ZM1003.62 1020.45C1003.62 1030.15 1001.89 1038.59 998.438 1045.77C994.983 1052.92 990.225 1058.47 984.165 1062.41C978.134 1066.32 971.195 1068.27 963.347 1068.27C955.498 1068.27 948.544 1066.32 942.483 1062.41C936.453 1058.47 931.71 1052.92 928.256 1045.77C924.831 1038.59 923.119 1030.15 923.119 1020.45C923.119 1010.76 924.831 1002.33 928.256 995.182C931.71 988 936.468 982.455 942.528 978.545C948.589 974.606 955.528 972.636 963.347 972.636C971.195 972.636 978.134 974.606 984.165 978.545C990.225 982.455 994.983 988 998.438 995.182C1001.89 1002.33 1003.62 1010.76 1003.62 1020.45ZM995.347 1020.45C995.347 1012.12 993.953 1004.98 991.165 999.045C988.377 993.076 984.574 988.515 979.756 985.364C974.938 982.212 969.468 980.636 963.347 980.636C957.256 980.636 951.801 982.212 946.983 985.364C942.165 988.515 938.347 993.061 935.528 999C932.741 1004.94 931.347 1012.09 931.347 1020.45C931.347 1028.79 932.741 1035.92 935.528 1041.86C938.316 1047.8 942.119 1052.36 946.938 1055.55C951.756 1058.7 957.225 1060.27 963.347 1060.27C969.468 1060.27 974.938 1058.7 979.756 1055.55C984.604 1052.39 988.422 1047.85 991.21 1041.91C993.998 1035.94 995.377 1028.79 995.347 1020.45ZM1025.46 1067V973.909H1055.5C1062.11 973.909 1067.62 975.106 1072.05 977.5C1076.5 979.864 1079.85 983.152 1082.09 987.364C1084.37 991.545 1085.5 996.348 1085.5 1001.77C1085.5 1007.2 1084.37 1011.98 1082.09 1016.14C1079.85 1020.29 1076.52 1023.53 1072.09 1025.86C1067.67 1028.2 1062.18 1029.36 1055.64 1029.36H1030.05V1021.59H1055.41C1060.26 1021.59 1064.29 1020.79 1067.5 1019.18C1070.74 1017.58 1073.15 1015.29 1074.73 1012.32C1076.33 1009.35 1077.14 1005.83 1077.14 1001.77C1077.14 997.712 1076.33 994.167 1074.73 991.136C1073.12 988.076 1070.7 985.712 1067.46 984.045C1064.24 982.379 1060.18 981.545 1055.27 981.545H1033.96V1067H1025.46ZM1066.5 1025L1089.41 1067H1079.59L1056.91 1025H1066.5ZM1107.49 1067V973.909H1161.49V981.545H1115.99V1016.59H1158.62V1024.23H1115.99V1059.36H1162.4V1067H1107.49ZM1184.77 973.909H1194.58L1228.36 1055H1229.18L1262.95 973.909H1272.77V1067H1264.77V991.864H1264.04L1232.63 1067H1224.9L1193.49 991.864H1192.77V1067H1184.77V973.909ZM1336.08 1067V973.909H1344.58V1059.36H1388.94V1067H1336.08ZM1482.05 1020.45C1482.05 1030.15 1480.32 1038.59 1476.87 1045.77C1473.41 1052.92 1468.66 1058.47 1462.59 1062.41C1456.56 1066.32 1449.63 1068.27 1441.78 1068.27C1433.93 1068.27 1426.97 1066.32 1420.91 1062.41C1414.88 1058.47 1410.14 1052.92 1406.69 1045.77C1403.26 1038.59 1401.55 1030.15 1401.55 1020.45C1401.55 1010.76 1403.26 1002.33 1406.69 995.182C1410.14 988 1414.9 982.455 1420.96 978.545C1427.02 974.606 1433.96 972.636 1441.78 972.636C1449.63 972.636 1456.56 974.606 1462.59 978.545C1468.66 982.455 1473.41 988 1476.87 995.182C1480.32 1002.33 1482.05 1010.76 1482.05 1020.45ZM1473.78 1020.45C1473.78 1012.12 1472.38 1004.98 1469.59 999.045C1466.81 993.076 1463 988.515 1458.19 985.364C1453.37 982.212 1447.9 980.636 1441.78 980.636C1435.69 980.636 1430.23 982.212 1425.41 985.364C1420.59 988.515 1416.78 993.061 1413.96 999C1411.17 1004.94 1409.78 1012.09 1409.78 1020.45C1409.78 1028.79 1411.17 1035.92 1413.96 1041.86C1416.75 1047.8 1420.55 1052.36 1425.37 1055.55C1430.19 1058.7 1435.66 1060.27 1441.78 1060.27C1447.9 1060.27 1453.37 1058.7 1458.19 1055.55C1463.03 1052.39 1466.85 1047.85 1469.64 1041.91C1472.43 1035.94 1473.81 1028.79 1473.78 1020.45ZM1503.89 1067V973.909H1533.93C1540.54 973.909 1546.05 975.106 1550.48 977.5C1554.93 979.864 1558.28 983.152 1560.52 987.364C1562.8 991.545 1563.93 996.348 1563.93 1001.77C1563.93 1007.2 1562.8 1011.98 1560.52 1016.14C1558.28 1020.29 1554.95 1023.53 1550.52 1025.86C1546.1 1028.2 1540.61 1029.36 1534.07 1029.36H1508.48V1021.59H1533.84C1538.69 1021.59 1542.72 1020.79 1545.93 1019.18C1549.17 1017.58 1551.58 1015.29 1553.16 1012.32C1554.76 1009.35 1555.57 1005.83 1555.57 1001.77C1555.57 997.712 1554.76 994.167 1553.16 991.136C1551.55 988.076 1549.13 985.712 1545.89 984.045C1542.67 982.379 1538.61 981.545 1533.7 981.545H1512.39V1067H1503.89ZM1544.93 1025L1567.84 1067H1558.02L1535.34 1025H1544.93ZM1585.92 1067V973.909H1639.92V981.545H1594.42V1016.59H1637.05V1024.23H1594.42V1059.36H1640.83V1067H1585.92ZM1663.2 973.909H1673.01L1706.79 1055H1707.61L1741.38 973.909H1751.2V1067H1743.2V991.864H1742.47L1711.06 1067H1703.33L1671.92 991.864H1671.2V1067H1663.2V973.909ZM1865.05 997.182C1864.54 992 1862.25 987.879 1858.19 984.818C1854.13 981.758 1849.02 980.227 1842.87 980.227C1838.54 980.227 1834.72 980.97 1831.42 982.455C1828.14 983.939 1825.57 986 1823.69 988.636C1821.84 991.242 1820.92 994.212 1820.92 997.545C1820.92 1000 1821.45 1002.15 1822.51 1004C1823.57 1005.85 1824.99 1007.44 1826.78 1008.77C1828.6 1010.08 1830.6 1011.2 1832.78 1012.14C1834.99 1013.08 1837.22 1013.86 1839.46 1014.5L1849.28 1017.32C1852.25 1018.14 1855.22 1019.18 1858.19 1020.45C1861.16 1021.73 1863.87 1023.33 1866.32 1025.27C1868.81 1027.18 1870.79 1029.53 1872.28 1032.32C1873.79 1035.08 1874.55 1038.39 1874.55 1042.27C1874.55 1047.24 1873.26 1051.71 1870.69 1055.68C1868.11 1059.65 1864.42 1062.8 1859.6 1065.14C1854.78 1067.44 1849.01 1068.59 1842.28 1068.59C1835.95 1068.59 1830.45 1067.55 1825.78 1065.45C1821.11 1063.33 1817.45 1060.41 1814.78 1056.68C1812.11 1052.95 1810.61 1048.64 1810.28 1043.73H1819.01C1819.31 1047.39 1820.52 1050.5 1822.64 1053.05C1824.76 1055.59 1827.52 1057.53 1830.92 1058.86C1834.31 1060.17 1838.1 1060.82 1842.28 1060.82C1846.92 1060.82 1851.04 1060.05 1854.64 1058.5C1858.28 1056.92 1861.13 1054.74 1863.19 1051.95C1865.28 1049.14 1866.32 1045.86 1866.32 1042.14C1866.32 1038.98 1865.51 1036.35 1863.87 1034.23C1862.23 1032.08 1859.95 1030.27 1857.01 1028.82C1854.1 1027.36 1850.72 1026.08 1846.87 1024.95L1835.73 1021.68C1828.43 1019.5 1822.76 1016.48 1818.73 1012.64C1814.7 1008.79 1812.69 1003.88 1812.69 997.909C1812.69 992.909 1814.02 988.515 1816.69 984.727C1819.38 980.909 1823.02 977.939 1827.6 975.818C1832.2 973.667 1837.37 972.591 1843.1 972.591C1848.88 972.591 1854.01 973.652 1858.46 975.773C1862.92 977.894 1866.45 980.818 1869.05 984.545C1871.69 988.242 1873.1 992.455 1873.28 997.182H1865.05ZM1904.79 973.909V1067H1896.29V973.909H1904.79ZM1925.18 981.545V973.909H1992.68V981.545H1963.18V1067H1954.68V981.545H1925.18ZM772.565 1224H763.656L797.52 1130.91H806.61L840.474 1224H831.565L802.383 1141.95H801.747L772.565 1224ZM778.974 1188.32H825.156V1195.95H778.974V1188.32ZM857.709 1130.91H867.527L901.3 1212H902.118L935.89 1130.91H945.709V1224H937.709V1148.86H936.981L905.572 1224H897.845L866.436 1148.86H865.709V1224H857.709V1130.91ZM971.739 1224V1130.91H1025.74V1138.55H980.239V1173.59H1022.88V1181.23H980.239V1216.36H1026.65V1224H971.739ZM1043.38 1138.55V1130.91H1110.88V1138.55H1081.38V1224H1072.88V1138.55H1043.38Z" fill="#FFC973" fill-opacity="0.1"/>
</g>
<defs>
<clipPath id="clip0_310_10">
<rect width="1920" height="1075" fill="white"/>
</clipPath>
</defs>
</svg>
