<svg width="36" height="51" viewBox="0 0 36 51" fill="none" xmlns="http://www.w3.org/2000/svg">
<path d="M20.428 47.685C25.84 40.2625 36 28.5824 36 17.9206C36 5.05292 26.308 0 18 0C9.692 0 0 5.05292 0 17.9206C0 28.5824 9.9 40.2429 15.472 47.736C16.488 49.1012 17.36 50.2193 18 51L18.788 49.929L20.428 47.685Z" fill="#1F1F1F"/>
<path d="M18.1477 25.1648C16.9735 25.1648 15.9318 25.0038 15.0227 24.6818C14.1174 24.3636 13.3542 23.8939 12.733 23.2727C12.1117 22.6553 11.6402 21.8977 11.3182 21C10.9962 20.1023 10.8352 19.0777 10.8352 17.9261C10.8352 16.8049 10.9981 15.7973 11.3239 14.9034C11.6496 14.0095 12.1231 13.2481 12.7443 12.6193C13.3693 11.9867 14.1288 11.5038 15.0227 11.1705C15.9167 10.8371 16.9318 10.6705 18.0682 10.6705C19.1553 10.6705 20.1136 10.8409 20.9432 11.1818C21.7727 11.5227 22.4697 11.9905 23.0341 12.5852C23.6023 13.1799 24.0303 13.8617 24.3182 14.6307C24.6061 15.3996 24.75 16.2121 24.75 17.0682C24.75 17.6667 24.7121 18.2519 24.6364 18.8239C24.5606 19.392 24.4205 19.9072 24.2159 20.3693C24.0152 20.8277 23.7235 21.1951 23.3409 21.4716C22.9621 21.7443 22.4697 21.8864 21.8636 21.8977C21.5417 21.9091 21.2292 21.8712 20.9261 21.7841C20.6231 21.697 20.3655 21.5568 20.1534 21.3636C19.9413 21.1667 19.8125 20.9167 19.767 20.6136H19.6989C19.608 20.8371 19.4564 21.0455 19.2443 21.2386C19.0322 21.428 18.7614 21.5795 18.4318 21.6932C18.1061 21.803 17.7273 21.8485 17.2955 21.8295C16.8182 21.8106 16.3883 21.7027 16.0057 21.5057C15.6231 21.3087 15.2955 21.036 15.0227 20.6875C14.7538 20.339 14.5473 19.9261 14.4034 19.4489C14.2595 18.9716 14.1875 18.4413 14.1875 17.858C14.1875 17.2973 14.2689 16.7955 14.4318 16.3523C14.5947 15.9053 14.8163 15.5208 15.0966 15.1989C15.3807 14.8731 15.7064 14.6155 16.0739 14.4261C16.4413 14.2367 16.8295 14.1174 17.2386 14.0682C17.6364 14.0227 18.0019 14.0341 18.3352 14.1023C18.6686 14.1705 18.9451 14.2746 19.1648 14.4148C19.3883 14.5549 19.5284 14.7083 19.5852 14.875H19.6591V14.2386H21.0568V19.5114C21.0568 19.8106 21.1345 20.0644 21.2898 20.2727C21.4489 20.4811 21.6742 20.5852 21.9659 20.5852C22.3106 20.5852 22.5795 20.4583 22.7727 20.2045C22.9697 19.9508 23.108 19.5606 23.1875 19.0341C23.2708 18.5076 23.3125 17.8333 23.3125 17.0114C23.3125 16.4356 23.2348 15.8939 23.0795 15.3864C22.928 14.875 22.7027 14.4129 22.4034 14C22.108 13.5833 21.7443 13.2254 21.3125 12.9261C20.8807 12.6269 20.3883 12.3958 19.8352 12.233C19.286 12.0701 18.678 11.9886 18.0114 11.9886C17.1061 11.9886 16.3011 12.1288 15.5966 12.4091C14.892 12.6856 14.2973 13.0852 13.8125 13.608C13.3314 14.1307 12.9659 14.7576 12.7159 15.4886C12.4697 16.2159 12.3466 17.0322 12.3466 17.9375C12.3466 18.8807 12.4735 19.7178 12.7273 20.4489C12.9811 21.1761 13.3561 21.7898 13.8523 22.2898C14.3485 22.7898 14.9621 23.1686 15.6932 23.4261C16.4242 23.6875 17.267 23.8182 18.2216 23.8182C18.6458 23.8182 19.0625 23.7803 19.4716 23.7045C19.8807 23.6326 20.2443 23.5492 20.5625 23.4545C20.8845 23.3636 21.125 23.2898 21.2841 23.233L21.6818 24.4773C21.447 24.5871 21.1345 24.6951 20.7443 24.8011C20.358 24.9072 19.9375 24.9943 19.483 25.0625C19.0322 25.1307 18.5871 25.1648 18.1477 25.1648ZM17.625 20.4375C18.1174 20.4375 18.5133 20.339 18.8125 20.142C19.1155 19.9451 19.3333 19.6515 19.4659 19.2614C19.6023 18.8674 19.6705 18.375 19.6705 17.7841C19.6667 17.2083 19.5928 16.75 19.4489 16.4091C19.3087 16.0644 19.089 15.8182 18.7898 15.6705C18.4943 15.5189 18.1136 15.4432 17.6477 15.4432C17.2197 15.4432 16.8542 15.5473 16.5511 15.7557C16.2519 15.964 16.0227 16.2462 15.8636 16.6023C15.7083 16.9583 15.6288 17.3542 15.625 17.7898C15.6288 18.2481 15.6932 18.6799 15.8182 19.0852C15.947 19.4867 16.1553 19.8125 16.4432 20.0625C16.7348 20.3125 17.1288 20.4375 17.625 20.4375Z" fill="white"/>
<path d="M30.752 32.9941C27.44 38.5672 23.2261 43.7304 20.3535 47.6846L18.7188 49.9287L17.9336 51C17.296 50.2193 16.4272 49.1014 15.415 47.7363C12.8179 44.2309 9.27728 39.8133 6.24414 35.0127L12.7539 28.5029C14.317 29.2706 16.0746 29.7031 17.9336 29.7031C20.6118 29.7031 23.0797 28.8065 25.0576 27.2998L30.752 32.9941ZM8.56738 10.8096C7.06082 12.7873 6.16514 15.2555 6.16504 17.9336C6.16504 20.7551 7.15913 23.3436 8.81445 25.3711L3.65625 30.5293C1.50041 26.378 6.80885e-05 22.0745 0 17.9209C0 12.8124 1.52258 8.93614 3.87598 6.11816L8.56738 10.8096ZM33.3066 7.9502C34.8966 10.547 35.8682 13.8409 35.8682 17.9209C35.8681 21.359 34.8113 24.9011 33.2041 28.374L28.3125 23.4834C29.1986 21.8298 29.7031 19.9409 29.7031 17.9336C29.7031 16.0746 29.2706 14.317 28.5029 12.7539L33.3066 7.9502ZM17.9336 0C22.0823 0 26.5771 1.26988 30.0293 4.15625L25.3711 8.81445C23.3436 7.15913 20.7551 6.16504 17.9336 6.16504C15.9265 6.16512 14.0373 6.66867 12.3838 7.55469L7.66309 2.83398C10.7933 0.877985 14.4833 8.0239e-05 17.9336 0Z" fill="white"/>
<mask id="mask0_485_117" style="mask-type:alpha" maskUnits="userSpaceOnUse" x="0" y="0" width="36" height="51">
<path d="M18.1477 25.1648C16.9735 25.1648 15.9318 25.0038 15.0227 24.6818C14.1174 24.3636 13.3542 23.8939 12.733 23.2727C12.1117 22.6553 11.6402 21.8977 11.3182 21C10.9962 20.1023 10.8352 19.0777 10.8352 17.9261C10.8352 16.8049 10.9981 15.7973 11.3239 14.9034C11.6496 14.0095 12.1231 13.2481 12.7443 12.6193C13.3693 11.9867 14.1288 11.5038 15.0227 11.1705C15.9167 10.8371 16.9318 10.6705 18.0682 10.6705C19.1553 10.6705 20.1136 10.8409 20.9432 11.1818C21.7727 11.5227 22.4697 11.9905 23.0341 12.5852C23.6023 13.1799 24.0303 13.8617 24.3182 14.6307C24.6061 15.3996 24.75 16.2121 24.75 17.0682C24.75 17.6667 24.7121 18.2519 24.6364 18.8239C24.5606 19.392 24.4205 19.9072 24.2159 20.3693C24.0152 20.8277 23.7235 21.1951 23.3409 21.4716C22.9621 21.7443 22.4697 21.8864 21.8636 21.8977C21.5417 21.9091 21.2292 21.8712 20.9261 21.7841C20.6231 21.697 20.3655 21.5568 20.1534 21.3636C19.9413 21.1667 19.8125 20.9167 19.767 20.6136H19.6989C19.608 20.8371 19.4564 21.0455 19.2443 21.2386C19.0322 21.428 18.7614 21.5795 18.4318 21.6932C18.1061 21.803 17.7273 21.8485 17.2955 21.8295C16.8182 21.8106 16.3883 21.7027 16.0057 21.5057C15.6231 21.3087 15.2955 21.036 15.0227 20.6875C14.7538 20.339 14.5473 19.9261 14.4034 19.4489C14.2595 18.9716 14.1875 18.4413 14.1875 17.858C14.1875 17.2973 14.2689 16.7955 14.4318 16.3523C14.5947 15.9053 14.8163 15.5208 15.0966 15.1989C15.3807 14.8731 15.7064 14.6155 16.0739 14.4261C16.4413 14.2367 16.8295 14.1174 17.2386 14.0682C17.6364 14.0227 18.0019 14.0341 18.3352 14.1023C18.6686 14.1705 18.9451 14.2746 19.1648 14.4148C19.3883 14.5549 19.5284 14.7083 19.5852 14.875H19.6591V14.2386H21.0568V19.5114C21.0568 19.8106 21.1345 20.0644 21.2898 20.2727C21.4489 20.4811 21.6742 20.5852 21.9659 20.5852C22.3106 20.5852 22.5795 20.4583 22.7727 20.2045C22.9697 19.9508 23.108 19.5606 23.1875 19.0341C23.2708 18.5076 23.3125 17.8333 23.3125 17.0114C23.3125 16.4356 23.2348 15.8939 23.0795 15.3864C22.928 14.875 22.7027 14.4129 22.4034 14C22.108 13.5833 21.7443 13.2254 21.3125 12.9261C20.8807 12.6269 20.3883 12.3958 19.8352 12.233C19.286 12.0701 18.678 11.9886 18.0114 11.9886C17.1061 11.9886 16.3011 12.1288 15.5966 12.4091C14.892 12.6856 14.2973 13.0852 13.8125 13.608C13.3314 14.1307 12.9659 14.7576 12.7159 15.4886C12.4697 16.2159 12.3466 17.0322 12.3466 17.9375C12.3466 18.8807 12.4735 19.7178 12.7273 20.4489C12.9811 21.1761 13.3561 21.7898 13.8523 22.2898C14.3485 22.7898 14.9621 23.1686 15.6932 23.4261C16.4242 23.6875 17.267 23.8182 18.2216 23.8182C18.6458 23.8182 19.0625 23.7803 19.4716 23.7045C19.8807 23.6326 20.2443 23.5492 20.5625 23.4545C20.8845 23.3636 21.125 23.2898 21.2841 23.233L21.6818 24.4773C21.447 24.5871 21.1345 24.6951 20.7443 24.8011C20.358 24.9072 19.9375 24.9943 19.483 25.0625C19.0322 25.1307 18.5871 25.1648 18.1477 25.1648ZM17.625 20.4375C18.1174 20.4375 18.5133 20.339 18.8125 20.142C19.1155 19.9451 19.3333 19.6515 19.4659 19.2614C19.6023 18.8674 19.6705 18.375 19.6705 17.7841C19.6667 17.2083 19.5928 16.75 19.4489 16.4091C19.3087 16.0644 19.089 15.8182 18.7898 15.6705C18.4943 15.5189 18.1136 15.4432 17.6477 15.4432C17.2197 15.4432 16.8542 15.5473 16.5511 15.7557C16.2519 15.964 16.0227 16.2462 15.8636 16.6023C15.7083 16.9583 15.6288 17.3542 15.625 17.7898C15.6288 18.2481 15.6932 18.6799 15.8182 19.0852C15.947 19.4867 16.1553 19.8125 16.4432 20.0625C16.7348 20.3125 17.1288 20.4375 17.625 20.4375Z" fill="white"/>
<path d="M30.752 32.9941C27.44 38.5672 23.2261 43.7304 20.3535 47.6846L18.7188 49.9287L17.9336 51C17.296 50.2193 16.4272 49.1014 15.415 47.7363C12.8179 44.2309 9.27728 39.8133 6.24414 35.0127L12.7539 28.5029C14.317 29.2706 16.0746 29.7031 17.9336 29.7031C20.6118 29.7031 23.0797 28.8065 25.0576 27.2998L30.752 32.9941ZM8.56738 10.8096C7.06082 12.7873 6.16514 15.2555 6.16504 17.9336C6.16504 20.7551 7.15913 23.3436 8.81445 25.3711L3.65625 30.5293C1.50041 26.378 6.80885e-05 22.0745 0 17.9209C0 12.8124 1.52258 8.93614 3.87598 6.11816L8.56738 10.8096ZM33.3066 7.9502C34.8966 10.547 35.8682 13.8409 35.8682 17.9209C35.8681 21.359 34.8113 24.9011 33.2041 28.374L28.3125 23.4834C29.1986 21.8298 29.7031 19.9409 29.7031 17.9336C29.7031 16.0746 29.2706 14.317 28.5029 12.7539L33.3066 7.9502ZM17.9336 0C22.0823 0 26.5771 1.26988 30.0293 4.15625L25.3711 8.81445C23.3436 7.15913 20.7551 6.16504 17.9336 6.16504C15.9265 6.16512 14.0373 6.66867 12.3838 7.55469L7.66309 2.83398C10.7933 0.877985 14.4833 8.0239e-05 17.9336 0Z" fill="white"/>
</mask>
<g mask="url(#mask0_485_117)">
<path d="M-3 25.5V8L5 -2.5H10.5H28L36 3L38 15L40 8L34.5 32L28 26.5L25.5 11.5L19.5 8L11.5 9.5L10.5 25.5L2 33.5L-1.5 26.5L-3 25.5Z" fill="#FFC973"/>
</g>
</svg>
