<svg width="22" height="22" viewBox="0 0 22 22" fill="none" xmlns="http://www.w3.org/2000/svg">
<path d="M14.7776 1.02543C15.4058 0.397061 16.2495 0.0311466 17.1376 0.00189847C18.0256 -0.0273496 18.8916 0.282259 19.5598 0.867931L19.7278 1.02543L20.5526 1.85026C21.1806 2.47842 21.5463 3.32188 21.5756 4.20966C21.6048 5.09744 21.2954 5.96313 20.7101 6.63126L20.5526 6.79926L7.47194 19.8811C7.28699 20.066 7.06294 20.2072 6.81627 20.2941L6.62727 20.3489L1.43094 21.5483C1.24887 21.5906 1.05929 21.5886 0.878161 21.5424C0.697036 21.4961 0.529671 21.4071 0.390159 21.2826C0.250648 21.1582 0.143075 21.0021 0.0764996 20.8274C0.00992448 20.6528 -0.0137037 20.4646 0.0076051 20.2789L0.0309384 20.1471L1.2291 14.9496C1.2883 14.6947 1.40391 14.4563 1.56744 14.2519L1.69694 14.1061L14.7776 1.02543ZM13.9528 5.1496L3.46444 15.6379L2.72244 18.8556L5.9401 18.1124L16.4284 7.6241L13.9528 5.1496ZM18.0781 2.6751C17.8772 2.47422 17.6099 2.35356 17.3264 2.33573C17.0429 2.3179 16.7626 2.40414 16.5381 2.57826L16.4284 2.6751L15.6024 3.49993L18.0781 5.97443L18.9029 5.1496C19.1038 4.94871 19.2245 4.68142 19.2423 4.39789C19.2601 4.11436 19.1739 3.83407 18.9998 3.6096L18.9029 3.49993L18.0781 2.6751Z" fill="white"/>
</svg>
