<svg width="37" height="37" viewBox="0 0 37 37" fill="none" xmlns="http://www.w3.org/2000/svg">
<path d="M24.7204 4.64825C25.5506 3.8179 26.6654 3.33437 27.8389 3.29572C29.0125 3.25707 30.1567 3.6662 31.0397 4.44012L31.2617 4.64825L32.3517 5.7382C33.1816 6.56827 33.6648 7.68283 33.7035 8.85598C33.7421 10.0291 33.3333 11.1731 32.5598 12.056L32.3517 12.278L15.0665 29.5647C14.8221 29.809 14.526 29.9955 14.2001 30.1104L13.9503 30.1829L7.08375 31.7677C6.84316 31.8237 6.59264 31.821 6.3533 31.7599C6.11395 31.6988 5.89279 31.5811 5.70844 31.4167C5.52408 31.2523 5.38193 31.046 5.29396 30.8152C5.20599 30.5844 5.17476 30.3358 5.20292 30.0904L5.23375 29.9162L6.81705 23.048C6.89526 22.7112 7.04804 22.3961 7.26413 22.1261L7.43525 21.9334L24.7204 4.64825ZM23.6305 10.098L9.77088 23.9576L8.79038 28.2095L13.0423 27.2275L26.9019 13.3679L23.6305 10.098ZM29.0818 6.82816C28.8163 6.56272 28.4631 6.40327 28.0885 6.37971C27.7138 6.35615 27.3434 6.47011 27.0468 6.70021L26.9019 6.82816L25.8104 7.91812L29.0818 11.188L30.1718 10.098C30.4372 9.83257 30.5966 9.47938 30.6202 9.10471C30.6438 8.73005 30.5298 8.35966 30.2997 8.06304L30.1718 7.91812L29.0818 6.82816Z" fill="white"/>
</svg>
