<svg width="27" height="31" viewBox="0 0 27 31" fill="none" xmlns="http://www.w3.org/2000/svg">
<path d="M5.0625 0.25H21.9375C23.2202 0.25 24.4465 0.718314 25.3477 1.5459C26.2482 2.37302 26.75 3.49063 26.75 4.65039V26.3496C26.75 27.5094 26.2482 28.627 25.3477 29.4541C24.4465 30.2817 23.2202 30.75 21.9375 30.75H5.0625C3.77977 30.75 2.55352 30.2817 1.65234 29.4541C0.751849 28.627 0.25 27.5094 0.25 26.3496V21.7002C0.25 21.3627 0.39562 21.0338 0.663086 20.7881C0.931358 20.5417 1.29972 20.4004 1.6875 20.4004C2.07528 20.4004 2.44364 20.5417 2.71191 20.7881C2.97938 21.0338 3.125 21.3627 3.125 21.7002V26.3496C3.125 26.8341 3.33488 27.2943 3.7002 27.6299C4.06486 27.9648 4.55518 28.1504 5.0625 28.1504H21.9375C22.4448 28.1504 22.9351 27.9648 23.2998 27.6299C23.6651 27.2943 23.875 26.8341 23.875 26.3496V4.65039C23.875 4.16586 23.6651 3.70571 23.2998 3.37012C22.9351 3.03517 22.4448 2.84961 21.9375 2.84961H5.0625C4.55518 2.84961 4.06486 3.03517 3.7002 3.37012C3.33488 3.70571 3.125 4.16586 3.125 4.65039V9.2998C3.125 9.63734 2.97938 9.96617 2.71191 10.2119C2.44364 10.4583 2.07528 10.5996 1.6875 10.5996C1.29972 10.5996 0.931358 10.4583 0.663086 10.2119C0.39562 9.96617 0.25 9.63734 0.25 9.2998V4.65039C0.25 3.49063 0.751849 2.37302 1.65234 1.5459C2.55352 0.718314 3.77977 0.25 5.0625 0.25ZM11.8125 7.99414C12.005 7.99414 12.1952 8.02842 12.3721 8.0957C12.5489 8.16298 12.7085 8.26136 12.8418 8.38379L19.5918 14.584C19.7195 14.7076 19.8188 14.8517 19.8848 15.0078L19.8867 15.0127C20.0265 15.3251 20.0265 15.6749 19.8867 15.9873L19.8848 15.9922C19.8188 16.1483 19.7195 16.2924 19.5918 16.416L12.8418 22.6162L12.8408 22.6172C12.708 22.7401 12.5488 22.8386 12.3721 22.9062C12.1953 22.9739 12.0051 23.0088 11.8125 23.0088C11.6199 23.0088 11.4297 22.9739 11.2529 22.9062C11.0762 22.8386 10.917 22.7401 10.7842 22.6172L10.7832 22.6152L10.6875 22.5205C10.5982 22.4212 10.5261 22.3101 10.4727 22.1924C10.4016 22.0357 10.3653 21.8685 10.3652 21.7002C10.3652 21.5317 10.4015 21.3639 10.4727 21.207C10.526 21.0894 10.5983 20.9791 10.6875 20.8799L10.7832 20.7842L14.6641 17.2344L15.1396 16.7998H1.6875C1.29972 16.7998 0.931358 16.6585 0.663086 16.4121C0.395558 16.1664 0.25 15.8376 0.25 15.5C0.25 15.1624 0.395558 14.8336 0.663086 14.5879C0.931358 14.3415 1.29972 14.2002 1.6875 14.2002H15.1396L14.6641 13.7656L10.7822 10.2158C10.6494 10.0936 10.5453 9.94963 10.4746 9.79297C10.4038 9.636 10.3682 9.46826 10.3682 9.2998C10.3682 9.13159 10.404 8.96438 10.4746 8.80762C10.5454 8.65067 10.6501 8.50613 10.7832 8.38379C10.9165 8.26136 11.0761 8.16298 11.2529 8.0957C11.4298 8.02842 11.62 7.99414 11.8125 7.99414Z" fill="white" stroke="black" stroke-width="0.5"/>
</svg>
