<svg width="24" height="24" viewBox="0 0 24 24" fill="none" xmlns="http://www.w3.org/2000/svg">
<path d="M9.09573 21.25V18.104C9.09576 17.3325 9.36368 16.5849 9.85373 15.989C6.84873 15.589 4.57373 14.13 4.57373 10.191C4.57373 8.525 6.00573 6.301 6.00573 6.301C5.49173 5.171 5.50573 3.217 6.06573 2.75C6.06573 2.75 8.01573 2.925 9.91273 4.5C11.7507 4.005 13.6767 3.946 15.5737 4.5C17.4707 2.925 19.4217 2.75 19.4217 2.75C19.9797 3.217 19.9947 5.172 19.4817 6.301C19.4817 6.301 20.9137 8.525 20.9137 10.191C20.9137 14.131 18.6377 15.589 15.6337 15.989C16.1234 16.585 16.391 17.3326 16.3907 18.104V21.25" stroke="#D0D0D0" stroke-width="1.7" stroke-linecap="round" stroke-linejoin="round"/>
<path d="M3.08594 16.5698C3.24894 17.1238 3.54894 17.6358 3.96394 18.0658C4.37794 18.4968 4.89594 18.8358 5.47694 19.0538C6.06181 19.2734 6.68628 19.3676 7.30988 19.3304C7.93349 19.2932 8.54232 19.1253 9.09694 18.8378" stroke="#D0D0D0" stroke-width="1.7" stroke-linecap="round" stroke-linejoin="round"/>
</svg>
