<svg width="14" height="8" viewBox="0 0 14 8" fill="none" xmlns="http://www.w3.org/2000/svg">
<path d="M12.9955 0.292875C12.8079 0.105385 12.5536 5.81741e-05 12.2884 5.81741e-05C12.0232 5.81741e-05 11.7689 0.105385 11.5814 0.292875L6.63139 5.24288L1.68139 0.292875C1.49187 0.116446 1.2413 0.0204062 0.982411 0.0249634C0.72352 0.0295205 0.476489 0.134319 0.293296 0.31731C0.110103 0.500301 0.00503063 0.747217 0.00018692 1.0061C-0.00465679 1.26499 0.0911064 1.51566 0.267326 1.70538L5.92358 7.36319C6.11111 7.55068 6.36543 7.65601 6.63061 7.65601C6.89579 7.65601 7.15011 7.55068 7.33764 7.36319L12.9955 1.70694C13.1829 1.51941 13.2883 1.26509 13.2883 0.999907C13.2883 0.734727 13.1829 0.480405 12.9955 0.292875Z" fill="#C2C2C2"/>
</svg>
