<svg width="16" height="16" viewBox="0 0 16 16" fill="none" xmlns="http://www.w3.org/2000/svg">
<path d="M5.29373 1.63596C5.10624 1.82349 5.00091 2.07781 5.00091 2.34299C5.00091 2.60817 5.10624 2.86249 5.29373 3.05002L10.2437 8.00002L5.29373 12.95C5.1173 13.1395 5.02126 13.3901 5.02582 13.649C5.03038 13.9079 5.13517 14.1549 5.31816 14.3381C5.50116 14.5213 5.74807 14.6264 6.00696 14.6312C6.26584 14.6361 6.51651 14.5403 6.70623 14.3641L12.364 8.70783C12.5515 8.5203 12.6569 8.26598 12.6569 8.0008C12.6569 7.73562 12.5515 7.4813 12.364 7.29377L6.70779 1.63596C6.52026 1.44847 6.26594 1.34314 6.00076 1.34314C5.73558 1.34314 5.48126 1.44847 5.29373 1.63596Z" fill="#C2C2C2"/>
</svg>
