<svg width="28" height="37" viewBox="0 0 28 37" fill="none" xmlns="http://www.w3.org/2000/svg">
<path d="M8.09375 27.2139H19.6562C19.9231 27.2139 20.1795 27.3191 20.3682 27.5078C20.5569 27.6965 20.6621 27.9529 20.6621 28.2197C20.6621 28.4866 20.5569 28.7429 20.3682 28.9316C20.1795 29.1203 19.9231 29.2256 19.6562 29.2256H8.09375C7.82688 29.2256 7.57054 29.1203 7.38184 28.9316C7.19313 28.7429 7.08789 28.4866 7.08789 28.2197C7.08789 27.9529 7.19313 27.6965 7.38184 27.5078C7.57054 27.3191 7.82688 27.2139 8.09375 27.2139ZM13.875 11.0264C15.6752 11.0264 17.4019 11.7408 18.6748 13.0137C19.9477 14.2866 20.6621 16.0133 20.6621 17.8135C20.6621 19.6136 19.9477 21.3404 18.6748 22.6133C17.4019 23.8862 15.6752 24.6006 13.875 24.6006C12.0748 24.6006 10.3481 23.8862 9.0752 22.6133C7.80229 21.3404 7.08789 19.6136 7.08789 17.8135C7.08789 16.0133 7.80229 14.2866 9.0752 13.0137C10.3481 11.7408 12.0748 11.0264 13.875 11.0264ZM13.875 13.0381C12.6086 13.0381 11.3945 13.542 10.499 14.4375C9.60354 15.333 9.09961 16.5471 9.09961 17.8135C9.09961 19.0799 9.60354 20.294 10.499 21.1895C11.3945 22.0849 12.6086 22.5889 13.875 22.5889C15.1414 22.5889 16.3555 22.0849 17.251 21.1895C18.1465 20.294 18.6504 19.0799 18.6504 17.8135C18.6504 16.5471 18.1465 15.333 17.251 14.4375C16.3555 13.542 15.1414 13.0381 13.875 13.0381Z" fill="white" stroke="black" stroke-width="0.3"/>
<path d="M21.376 0.203125C21.8543 0.116293 22.3463 0.13564 22.8164 0.259766C23.2864 0.383926 23.7236 0.610187 24.0967 0.921875C24.4698 1.2336 24.7698 1.62396 24.9756 2.06445C25.1813 2.50491 25.2875 2.98555 25.2871 3.47168V4.64453L25.3623 4.68848C26.0425 5.08121 26.6072 5.64596 27 6.32617C27.3928 7.00643 27.5996 7.77798 27.5996 8.56348V31.6885C27.5996 32.8753 27.1283 34.0133 26.2891 34.8525C25.4498 35.6918 24.3118 36.1631 23.125 36.1631H4.625C3.278 36.1631 2.06744 35.5685 1.24609 34.624L1.24023 34.6172L1.23438 34.6113L1.11328 34.4951C0.521685 33.9001 0.150391 33.0786 0.150391 32.1553V6.83398C0.15032 6.05666 0.422827 5.30382 0.920898 4.70703C1.41905 4.11022 2.11109 3.70725 2.87598 3.56836L2.99902 3.5459V3.54297L21.376 0.203125ZM4.625 6.10059C3.97191 6.10059 3.3456 6.36047 2.88379 6.82227C2.42199 7.28407 2.16212 7.91039 2.16211 8.56348V31.6885C2.16211 32.3416 2.42199 32.9679 2.88379 33.4297C3.3456 33.8915 3.9719 34.1514 4.625 34.1514H23.125C23.7781 34.1514 24.4044 33.8915 24.8662 33.4297C25.328 32.9679 25.5879 32.3416 25.5879 31.6885V8.56348C25.5879 7.91039 25.328 7.28407 24.8662 6.82227C24.4044 6.36047 23.7781 6.10059 23.125 6.10059H4.625Z" fill="white" stroke="black" stroke-width="0.3"/>
</svg>
