<svg width="29" height="54" viewBox="0 0 29 54" fill="none" xmlns="http://www.w3.org/2000/svg">
<path d="M25.8184 0.439453C26.4041 -0.146333 27.3537 -0.146331 27.9395 0.439453C28.5252 1.02524 28.5252 1.97476 27.9395 2.56055L3.62109 26.8779L27.9395 51.1963C28.5252 51.7821 28.5252 52.7326 27.9395 53.3184C27.3537 53.9038 26.4041 53.9038 25.8184 53.3184L0.439453 27.9395C0.146691 27.6466 1.25212e-05 27.2627 0 26.8789C-5.11589e-05 26.6869 0.0371598 26.4951 0.110352 26.3145C0.128718 26.2692 0.148902 26.2243 0.171875 26.1807C0.240511 26.0501 0.329661 25.9272 0.439453 25.8174L25.8184 0.439453Z" fill="url(#paint0_linear_287_45)"/>
<defs>
<linearGradient id="paint0_linear_287_45" x1="28.3789" y1="6.87866" x2="-5.62109" y2="75.3787" gradientUnits="userSpaceOnUse">
<stop stop-color="#BDBDBD" stop-opacity="0.866667"/>
<stop offset="1" stop-color="#696969"/>
</linearGradient>
</defs>
</svg>
