<svg width="64" height="19" viewBox="0 0 64 19" fill="none" xmlns="http://www.w3.org/2000/svg">
<path d="M0.318182 18V0.545454H1.91193V16.5682H10.2301V18H0.318182ZM27.4482 9.27273C27.4482 11.0909 27.1243 12.6733 26.4766 14.0199C25.8288 15.3608 24.9368 16.4006 23.8004 17.1392C22.6697 17.8722 21.3686 18.2386 19.897 18.2386C18.4254 18.2386 17.1214 17.8722 15.9851 17.1392C14.8544 16.4006 13.9652 15.3608 13.3175 14.0199C12.6754 12.6733 12.3544 11.0909 12.3544 9.27273C12.3544 7.45455 12.6754 5.875 13.3175 4.53409C13.9652 3.1875 14.8572 2.14773 15.9936 1.41477C17.13 0.676136 18.4311 0.306818 19.897 0.306818C21.3686 0.306818 22.6697 0.676136 23.8004 1.41477C24.9368 2.14773 25.8288 3.1875 26.4766 4.53409C27.1243 5.875 27.4482 7.45455 27.4482 9.27273ZM25.897 9.27273C25.897 7.71023 25.6357 6.37216 25.1129 5.25852C24.5902 4.1392 23.8771 3.28409 22.9737 2.69318C22.0703 2.10227 21.0447 1.80682 19.897 1.80682C18.755 1.80682 17.7322 2.10227 16.8288 2.69318C15.9254 3.28409 15.2095 4.13636 14.6811 5.25C14.1584 6.36364 13.897 7.70455 13.897 9.27273C13.897 10.8352 14.1584 12.1733 14.6811 13.2869C15.2038 14.4006 15.9169 15.2557 16.8203 15.8523C17.7237 16.4432 18.7493 16.7386 19.897 16.7386C21.0447 16.7386 22.0703 16.4432 22.9737 15.8523C23.8828 15.2614 24.5987 14.4091 25.1214 13.2955C25.6442 12.1761 25.9027 10.8352 25.897 9.27273ZM43.3793 6C43.2202 5.42045 42.9872 4.87784 42.6804 4.37216C42.3736 3.8608 41.9929 3.41477 41.5384 3.03409C41.0895 2.64773 40.5696 2.34659 39.9787 2.13068C39.3935 1.91477 38.7401 1.80682 38.0185 1.80682C36.8821 1.80682 35.8651 2.10227 34.9673 2.69318C34.0696 3.28409 33.3594 4.13636 32.8366 5.25C32.3196 6.36364 32.0611 7.70455 32.0611 9.27273C32.0611 10.8352 32.3224 12.1733 32.8452 13.2869C33.3679 14.4006 34.0838 15.2557 34.9929 15.8523C35.9077 16.4432 36.9531 16.7386 38.1293 16.7386C39.2031 16.7386 40.152 16.5 40.9759 16.0227C41.7997 15.5455 42.4418 14.8636 42.902 13.9773C43.3679 13.0909 43.5952 12.0369 43.5838 10.8153L44.0952 10.9773H38.5043V9.54545H45.1349V10.9773C45.1349 12.4659 44.8338 13.7528 44.2315 14.8381C43.6293 15.9233 42.8026 16.7614 41.7514 17.3523C40.7003 17.9432 39.4929 18.2386 38.1293 18.2386C36.6065 18.2386 35.2741 17.8722 34.1321 17.1392C32.9901 16.4006 32.1009 15.3608 31.4645 14.0199C30.8338 12.6733 30.5185 11.0909 30.5185 9.27273C30.5185 7.90341 30.7003 6.66761 31.0639 5.56534C31.4276 4.46307 31.9418 3.51989 32.6065 2.73579C33.277 1.9517 34.0696 1.35227 34.9844 0.9375C35.8991 0.517045 36.9105 0.306818 38.0185 0.306818C38.973 0.306818 39.8452 0.457386 40.6349 0.758522C41.4304 1.05966 42.1293 1.47443 42.7315 2.00284C43.3395 2.52557 43.8366 3.13068 44.223 3.81818C44.6151 4.5 44.8793 5.22727 45.0156 6H43.3793ZM63.4013 9.27273C63.4013 11.0909 63.0774 12.6733 62.4297 14.0199C61.782 15.3608 60.8899 16.4006 59.7536 17.1392C58.6229 17.8722 57.3217 18.2386 55.8501 18.2386C54.3786 18.2386 53.0746 17.8722 51.9382 17.1392C50.8075 16.4006 49.9183 15.3608 49.2706 14.0199C48.6286 12.6733 48.3075 11.0909 48.3075 9.27273C48.3075 7.45455 48.6286 5.875 49.2706 4.53409C49.9183 3.1875 50.8104 2.14773 51.9467 1.41477C53.0831 0.676136 54.3842 0.306818 55.8501 0.306818C57.3217 0.306818 58.6229 0.676136 59.7536 1.41477C60.8899 2.14773 61.782 3.1875 62.4297 4.53409C63.0774 5.875 63.4013 7.45455 63.4013 9.27273ZM61.8501 9.27273C61.8501 7.71023 61.5888 6.37216 61.0661 5.25852C60.5433 4.1392 59.8303 3.28409 58.9268 2.69318C58.0234 2.10227 56.9979 1.80682 55.8501 1.80682C54.7081 1.80682 53.6854 2.10227 52.782 2.69318C51.8786 3.28409 51.1626 4.13636 50.6342 5.25C50.1115 6.36364 49.8501 7.70455 49.8501 9.27273C49.8501 10.8352 50.1115 12.1733 50.6342 13.2869C51.157 14.4006 51.87 15.2557 52.7734 15.8523C53.6768 16.4432 54.7024 16.7386 55.8501 16.7386C56.9979 16.7386 58.0234 16.4432 58.9268 15.8523C59.8359 15.2614 60.5518 14.4091 61.0746 13.2955C61.5973 12.1761 61.8558 10.8352 61.8501 9.27273Z" fill="white"/>
</svg>
