<svg width="33" height="33" viewBox="0 0 33 33" fill="none" xmlns="http://www.w3.org/2000/svg">
<path d="M8.25 2.75C7.52065 2.75 6.82118 3.03973 6.30546 3.55546C5.78973 4.07118 5.5 4.77065 5.5 5.5V27.5C5.5 28.2293 5.78973 28.9288 6.30546 29.4445C6.82118 29.9603 7.52065 30.25 8.25 30.25H24.75C25.4793 30.25 26.1788 29.9603 26.6945 29.4445C27.2103 28.9288 27.5 28.2293 27.5 27.5V5.5C27.5 4.77065 27.2103 4.07118 26.6945 3.55546C26.1788 3.03973 25.4793 2.75 24.75 2.75H8.25ZM16.5 6.875C18.3234 6.875 20.072 7.59933 21.3614 8.88864C22.6507 10.178 23.375 11.9266 23.375 13.75C23.375 15.5734 22.6507 17.322 21.3614 18.6114C20.072 19.9007 18.3234 20.625 16.5 20.625C14.6766 20.625 12.928 19.9007 11.6386 18.6114C10.3493 17.322 9.625 15.5734 9.625 13.75C9.625 11.9266 10.3493 10.178 11.6386 8.88864C12.928 7.59933 14.6766 6.875 16.5 6.875ZM16.5 8.25C15.9362 9.1025 15.4688 10.0237 15.18 11H17.82C17.5247 10.0206 17.0794 9.09297 16.5 8.25ZM14.7125 8.5525C13.4475 8.97875 12.375 9.85875 11.7425 11H13.75C13.9975 10.1475 14.3 9.3225 14.7125 8.5525ZM18.2738 8.5525C18.6862 9.3225 19.0025 10.1475 19.25 11H21.2575C20.625 9.85875 19.5387 8.9925 18.2738 8.5525ZM11.1788 12.375C11.0688 12.815 11 13.2687 11 13.75C11 14.2312 11.0688 14.685 11.1788 15.125H13.5025C13.4475 14.6712 13.4062 14.2175 13.4062 13.75C13.4062 13.2825 13.4475 12.8287 13.5025 12.375H11.1788ZM14.8912 12.375C14.8225 12.815 14.7812 13.2825 14.7812 13.75C14.7812 14.2175 14.8225 14.6712 14.8912 15.125H18.1088C18.1637 14.6712 18.2188 14.2175 18.2188 13.75C18.2188 13.2825 18.1637 12.815 18.1088 12.375H14.8912ZM19.4975 12.375C19.5525 12.8287 19.5938 13.2825 19.5938 13.75C19.5938 14.2175 19.5525 14.6712 19.4975 15.125H21.8212C21.9312 14.685 22 14.2312 22 13.75C22 13.2687 21.9312 12.815 21.8212 12.375H19.4975ZM11.7425 16.5C12.375 17.6412 13.4475 18.5075 14.7125 18.9475C14.3 18.1775 13.9975 17.3662 13.75 16.5H11.7425ZM15.18 16.5C15.4688 17.49 15.9362 18.3975 16.5 19.25C17.0775 18.3975 17.5312 17.49 17.82 16.5H15.18ZM19.25 16.5C19.0025 17.3662 18.6862 18.1775 18.2738 18.9475C19.5387 18.5075 20.625 17.6412 21.2575 16.5H19.25ZM9.625 23.375H23.375V26.125H9.625V23.375Z" fill="white"/>
</svg>
