<svg width="33" height="33" viewBox="0 0 33 33" fill="none" xmlns="http://www.w3.org/2000/svg">
<path d="M9.625 28.875H6.875C6.11875 28.875 5.47158 28.606 4.9335 28.0679C4.39542 27.5298 4.12592 26.8822 4.125 26.125V16.5C4.125 14.7813 4.45179 13.1716 5.10538 11.671C5.75896 10.1704 6.64079 8.86417 7.75088 7.75225C8.86096 6.64034 10.1672 5.75804 11.6696 5.10538C13.172 4.45271 14.7822 4.12592 16.5 4.125C18.2178 4.12409 19.828 4.45088 21.3304 5.10538C22.8328 5.75988 24.139 6.64171 25.2491 7.75088C26.3592 8.86004 27.2415 10.1663 27.896 11.6696C28.5505 13.173 28.8768 14.7831 28.875 16.5V26.125C28.875 26.8813 28.606 27.5289 28.0679 28.0679C27.5298 28.6069 26.8822 28.8759 26.125 28.875H23.375C22.6188 28.875 21.9716 28.606 21.4335 28.0679C20.8954 27.5298 20.6259 26.8822 20.625 26.125V20.625C20.625 19.8688 20.8945 19.2216 21.4335 18.6835C21.9725 18.1454 22.6197 17.8759 23.375 17.875H26.125V16.5C26.125 13.8188 25.1914 11.5445 23.3241 9.67725C21.4569 7.81 19.1822 6.87592 16.5 6.875C13.8178 6.87409 11.5436 7.80817 9.67725 9.67725C7.81092 11.5463 6.87683 13.8206 6.875 16.5V17.875H9.625C10.3813 17.875 11.0289 18.1445 11.5679 18.6835C12.1069 19.2225 12.3759 19.8697 12.375 20.625V26.125C12.375 26.8813 12.106 27.5289 11.5679 28.0679C11.0298 28.6069 10.3822 28.8759 9.625 28.875Z" fill="white"/>
</svg>
