<svg width="33" height="33" viewBox="0 0 33 33" fill="none" xmlns="http://www.w3.org/2000/svg">
<path d="M22 4.125C23.0522 4.12494 24.0646 4.52695 24.8301 5.24877C25.5956 5.97058 26.0564 6.95765 26.1181 8.008L26.125 8.25V22H27.1563C28.0459 22 28.7788 22.6765 28.8668 23.5428L28.875 23.7188V26.125C28.8751 27.1772 28.4731 28.1896 27.7512 28.9551C27.0294 29.7206 26.0424 30.1814 24.992 30.2431L24.75 30.25H11C9.94784 30.2501 8.93542 29.8481 8.16989 29.1262C7.40437 28.4044 6.9436 27.4174 6.88188 26.367L6.875 26.125V12.375H4.46875C4.04325 12.3752 3.63279 12.2175 3.31682 11.9326C3.00085 11.6476 2.80182 11.2555 2.75825 10.8323L2.75 10.6563V8.25C2.74994 7.19784 3.15195 6.18542 3.87377 5.41989C4.59558 4.65437 5.58265 4.1936 6.633 4.13188L6.875 4.125H22ZM22 6.875H9.625V26.125C9.625 26.4897 9.76987 26.8394 10.0277 27.0973C10.2856 27.3551 10.6353 27.5 11 27.5C11.3647 27.5 11.7144 27.3551 11.9723 27.0973C12.2301 26.8394 12.375 26.4897 12.375 26.125V23.7188C12.375 22.77 13.145 22 14.0938 22H23.375V8.25C23.375 7.88533 23.2301 7.53559 22.9723 7.27773C22.7144 7.01987 22.3647 6.875 22 6.875ZM26.125 24.75H15.125V26.125C15.125 26.6063 15.0425 27.0696 14.8913 27.5H24.75C25.1147 27.5 25.4644 27.3551 25.7223 27.0973C25.9801 26.8394 26.125 26.4897 26.125 26.125V24.75ZM16.5 16.5C16.8647 16.5 17.2144 16.6449 17.4723 16.9027C17.7301 17.1606 17.875 17.5103 17.875 17.875C17.875 18.2397 17.7301 18.5894 17.4723 18.8473C17.2144 19.1051 16.8647 19.25 16.5 19.25H13.75C13.3853 19.25 13.0356 19.1051 12.7777 18.8473C12.5199 18.5894 12.375 18.2397 12.375 17.875C12.375 17.5103 12.5199 17.1606 12.7777 16.9027C13.0356 16.6449 13.3853 16.5 13.75 16.5H16.5ZM19.25 11C19.6147 11 19.9644 11.1449 20.2223 11.4027C20.4801 11.6606 20.625 12.0103 20.625 12.375C20.625 12.7397 20.4801 13.0894 20.2223 13.3473C19.9644 13.6051 19.6147 13.75 19.25 13.75H13.75C13.3853 13.75 13.0356 13.6051 12.7777 13.3473C12.5199 13.0894 12.375 12.7397 12.375 12.375C12.375 12.0103 12.5199 11.6606 12.7777 11.4027C13.0356 11.1449 13.3853 11 13.75 11H19.25ZM6.875 6.875C6.53822 6.87504 6.21316 6.99869 5.96149 7.22248C5.70982 7.44628 5.54903 7.75465 5.50963 8.08913L5.5 8.25V9.625H6.875V6.875Z" fill="white"/>
</svg>
