<svg width="37" height="37" viewBox="0 0 37 37" fill="none" xmlns="http://www.w3.org/2000/svg">
<path d="M13.8749 6.16675V33.9167M20.0416 12.3334H23.1249M20.0416 18.5001H23.1249M9.24992 6.16675H26.2083C27.026 6.16675 27.8103 6.4916 28.3885 7.06984C28.9667 7.64807 29.2916 8.43233 29.2916 9.25008V27.7501C29.2916 28.5678 28.9667 29.3521 28.3885 29.9303C27.8103 30.5086 27.026 30.8334 26.2083 30.8334H9.24992C8.84104 30.8334 8.44891 30.671 8.1598 30.3819C7.87068 30.0928 7.70825 29.7006 7.70825 29.2917V7.70841C7.70825 7.29954 7.87068 6.90741 8.1598 6.61829C8.44891 6.32917 8.84104 6.16675 9.24992 6.16675Z" stroke="white" stroke-width="2" stroke-linecap="round" stroke-linejoin="round"/>
</svg>
