<svg width="60" height="60" viewBox="0 0 60 60" fill="none" xmlns="http://www.w3.org/2000/svg">
<path d="M18 36.3158V21.3158C18 19.9211 18.3583 18.809 19.075 17.9795C19.7917 17.15 20.7354 16.5184 21.9063 16.0847C23.0771 15.6511 24.412 15.3616 25.9109 15.2163C27.4099 15.0711 28.9396 14.999 30.5 15C32.2187 15 33.8401 15.0726 35.3641 15.2179C36.888 15.3632 38.2161 15.6526 39.3484 16.0863C40.4807 16.52 41.3724 17.1516 42.0234 17.9811C42.6745 18.8105 43 19.9221 43 21.3158V36.3158C43 37.8684 42.4729 39.1779 41.4187 40.2442C40.3646 41.3105 39.0687 41.8432 37.5312 41.8421L39.875 44.2105V45H36.75L33.625 41.8421H27.375L24.25 45H21.125V44.2105L23.4688 41.8421C21.9323 41.8421 20.6365 41.3095 19.5813 40.2442C18.526 39.179 17.999 37.8695 18 36.3158ZM21.125 27.6316H28.9375V22.8947H21.125V27.6316ZM32.0625 27.6316H39.875V22.8947H32.0625V27.6316ZM25.0313 37.1053C25.7083 37.1053 26.2682 36.8816 26.7109 36.4342C27.1536 35.9868 27.375 35.4211 27.375 34.7368C27.375 34.0526 27.1536 33.4868 26.7109 33.0395C26.2682 32.5921 25.7083 32.3684 25.0313 32.3684C24.3542 32.3684 23.7943 32.5921 23.3516 33.0395C22.9089 33.4868 22.6875 34.0526 22.6875 34.7368C22.6875 35.4211 22.9089 35.9868 23.3516 36.4342C23.7943 36.8816 24.3542 37.1053 25.0313 37.1053ZM35.9687 37.1053C36.6458 37.1053 37.2057 36.8816 37.6484 36.4342C38.0911 35.9868 38.3125 35.4211 38.3125 34.7368C38.3125 34.0526 38.0911 33.4868 37.6484 33.0395C37.2057 32.5921 36.6458 32.3684 35.9687 32.3684C35.2917 32.3684 34.7318 32.5921 34.2891 33.0395C33.8464 33.4868 33.625 34.0526 33.625 34.7368C33.625 35.4211 33.8464 35.9868 34.2891 36.4342C34.7318 36.8816 35.2917 37.1053 35.9687 37.1053Z" fill="white"/>
<circle cx="30" cy="30" r="28.5" stroke="white" stroke-width="3"/>
</svg>
